SplineFontDB: 3.0
FontName: HadasimCLM-BoldOblique
FullName: Hadasim CLM BoldOblique
FamilyName: Hadasim CLM
Weight: Bold
Copyright: Inspired by Henri Friedlander Hadasa font.\n\nCopyright 2010 by Yoram Gnat (yoram.gnat@gmail.com). Distributed under the terms of GNU GPL version2 (http://www.gnu.org/licenses/gpl.html).\n\nLatin and parts of general punctuation marks based on modified forms from the LiberationSerif font, created by Digitized data `2007 Ascender Corporation. All rights reserved. \n\nAs a special exception, if you create a document which uses this font, and embed this font or unaltered portions of this font into the document, this font does not by itself cause the resulting document to be covered by the GNU General Public License. This exception does not however invalidate any other reasons why the document might be covered by the GNU General Public License. If you modify this font, you may extend this exception to your version of the font, but you are not obligated to do so. If you do not wish to do so, delete this exception statement from your version.
Version: 0.110
ItalicAngle: 0
UnderlinePosition: -1228
UnderlineWidth: 184
Ascent: 1638
Descent: 410
LayerCount: 2
Layer: 0 0 "Back"  1
Layer: 1 0 "Fore"  0
NeedsXUIDChange: 1
UniqueID: 4247518
FSType: 0
OS2Version: 0
OS2_WeightWidthSlopeOnly: 0
OS2_UseTypoMetrics: 0
CreationTime: 1235598109
ModificationTime: 1286636216
PfmFamily: 17
TTFWeight: 700
TTFWidth: 7
LineGap: 184
VLineGap: 0
OS2TypoAscent: 0
OS2TypoAOffset: 1
OS2TypoDescent: 0
OS2TypoDOffset: 1
OS2TypoLinegap: 184
OS2WinAscent: 0
OS2WinAOffset: 1
OS2WinDescent: 50
OS2WinDOffset: 1
HheadAscent: 0
HheadAOffset: 1
HheadDescent: 0
HheadDOffset: 1
OS2Vendor: 'PfEd'
Lookup: 4 1 0 "'ccmp' YodHiriq bug in Hebrew Script"  {"'ccmp' YodHiriq in Hebrew Script"  } ['ccmp' ('hebr' <'dflt' > ) ]

StartChar: exclam
Encoding: 33 33 1
Width: 418
Flags: W
HStem: -53 268<111.781 268.219>
VStem: 52 276<6.53833 155.898>
LayerCount: 2
Fore
SplineSet
324 81 m 0
 326 71 328 61 328 51 c 0
 328 -5 290 -53 221 -53 c 0
 141 -53 72 13 56 81 c 0
 54 91 52 101 52 111 c 0
 52 168 91 215 159 215 c 0
 239 215 308 150 324 81 c 0
-209 1255 m 1
 41 1255 l 1
 200 324 l 1
 69 324 l 1
 -209 1255 l 1
EndSplineSet
EndChar

StartChar: quotedbl
Encoding: 34 34 2
Width: 707
Flags: W
HStem: 760 495<-100 12 185 297>
VStem: -100 112<760 852.16> 185 112<760 852.16>
LayerCount: 2
Fore
SplineSet
108 1255 m 1
 342 1255 l 1
 297 760 l 1
 185 760 l 1
 108 1255 l 1
-177 1255 m 1
 57 1255 l 1
 12 760 l 1
 -100 760 l 1
 -177 1255 l 1
EndSplineSet
EndChar

StartChar: numbersign
Encoding: 35 35 3
Width: 1079
Flags: W
HStem: 295 157<20 163 331 522 686 898> 659 162<-68 145 312 504 668 814>
LayerCount: 2
Fore
SplineSet
898 452 m 1
 898 295 l 1
 686 295 l 1
 704 -25 l 1
 545 -25 l 1
 528 291 l 1
 331 291 l 1
 349 -25 l 1
 187 -25 l 1
 170 291 l 1
 20 291 l 1
 20 452 l 1
 163 452 l 1
 151 659 l 1
 -68 659 l 1
 -68 821 l 1
 145 821 l 1
 128 1075 l 1
 288 1075 l 1
 306 821 l 1
 504 821 l 1
 486 1074 l 1
 644 1074 l 1
 662 821 l 1
 814 821 l 1
 814 659 l 1
 668 659 l 1
 681 452 l 1
 898 452 l 1
325 452 m 1
 522 452 l 1
 509 659 l 1
 312 659 l 1
 325 452 l 1
EndSplineSet
EndChar

StartChar: dollar
Encoding: 36 36 4
Width: 917
Flags: W
HStem: 0 132<525 594.195> 960 139<303 439.529>
VStem: -110 179<737.451 927.275> 607 169<151.367 347.096>
LayerCount: 2
Fore
SplineSet
765 333 m 0
 772 302 776 272 776 245 c 0
 776 102 683 0 525 0 c 1
 550 -107 l 1
 372 -107 l 1
 347 0 l 1
 235 0 127 29 61 60 c 1
 -5 346 l 1
 88 346 l 1
 155 226 l 1
 199 184 256 158 312 152 c 1
 230 505 l 1
 200 519 l 1
 67 565 -59 637 -100 813 c 0
 -107 842 -110 869 -110 894 c 0
 -110 1012 -40 1099 93 1099 c 1
 82 1147 l 1
 260 1147 l 1
 271 1099 l 1
 373 1099 463 1076 508 1066 c 1
 528 1061 l 1
 588 803 l 1
 493 803 l 1
 441 917 l 1
 410 939 354 960 303 960 c 1
 372 662 l 1
 445 642 l 1
 638 577 731 480 765 333 c 0
425 431 m 1
 495 132 l 1
 571 145 607 164 607 219 c 0
 607 232 605 247 601 265 c 0
 579 359 520 399 425 431 c 1
189 684 m 1
 132 933 l 1
 87 924 69 908 69 874 c 0
 69 861 72 846 76 828 c 0
 95 744 122 712 189 684 c 1
EndSplineSet
EndChar

StartChar: percent
Encoding: 37 37 5
Width: 1448
Flags: W
HStem: -13 107<980.213 1143.36> 459 106<128.754 294.624> 496 107<909.88 1071.61> 943 106<61.0083 225.446>
VStem: -113 167<661.422 937.108> 302 179<571.096 847.113> 723 178<204.431 491.854> 1152 166<99.4778 388.952>
LayerCount: 2
Fore
SplineSet
414 -9 m 1x9f
 227 -9 l 1
 786 1049 l 1
 974 1049 l 1
 414 -9 l 1x9f
111 1049 m 0
 279 1049 420 966 468 756 c 0
 477 719 481 686 481 657 c 0
 481 504 369 459 242 459 c 0xdf
 101 459 -46 526 -100 756 c 0
 -109 794 -113 827 -113 856 c 0
 -113 1007 -4 1049 111 1049 c 0
218 565 m 0
 266 565 302 583 302 657 c 0
 302 683 298 715 288 756 c 0
 254 907 199 943 130 943 c 0
 85 943 54 928 54 861 c 0
 54 835 59 801 69 756 c 0
 107 595 155 565 218 565 c 0
960 603 m 0xbf
 1144 603 1260 491 1304 297 c 0
 1314 255 1318 218 1318 185 c 0
 1318 33 1216 -13 1098 -13 c 0
 949 -13 792 56 736 297 c 0
 728 331 723 366 723 398 c 0
 723 512 782 603 960 603 c 0xbf
1073 94 m 0
 1119 94 1152 112 1152 186 c 0
 1152 214 1147 251 1136 297 c 0
 1098 464 1043 496 980 496 c 0
 933 496 901 481 901 409 c 0
 901 381 906 345 917 297 c 0
 957 126 1008 94 1073 94 c 0
EndSplineSet
EndChar

StartChar: ampersand
Encoding: 38 38 6
Width: 1331
Flags: W
HStem: -22 113<312.209 650.595 1201.84 1259> 575 86<700 777.141 1030.27 1080> 972 114<203.022 403.515>
VStem: 20 178<209.444 475.02 770.095 962.923> 448 207<698.402 930.062> 818 175<339.745 552.875>
LayerCount: 2
Fore
SplineSet
648 847 m 0
 653 826 655 807 655 789 c 0
 655 676 563 621 477 582 c 1
 802 338 l 1
 810 375 818 427 818 482 c 0
 818 506 817 530 813 554 c 1
 700 575 l 1
 680 661 l 1
 1080 661 l 1
 1100 575 l 1
 993 553 l 1
 993 487 973 353 929 242 c 1
 1114 102 l 1
 1259 81 l 1
 1283 -22 l 1
 983 -22 l 1
 833 103 l 1
 764 30 667 -22 507 -22 c 0
 155 -22 58 169 30 291 c 0
 23 321 20 348 20 372 c 0
 20 497 104 555 193 597 c 1
 103 676 31 799 31 902 c 0
 31 1004 102 1086 294 1086 c 0
 548 1086 626 943 648 847 c 0
206 297 m 0
 240 152 344 91 480 91 c 0
 574 91 649 119 705 183 c 1
 281 503 l 1
 231 476 198 435 198 364 c 0
 198 344 200 322 206 297 c 0
299 972 m 0
 235 972 195 954 195 895 c 0
 195 882 197 867 201 850 c 0
 218 776 266 716 341 664 c 1
 407 692 448 721 448 791 c 0
 448 808 446 828 441 850 c 0
 423 929 382 972 299 972 c 0
EndSplineSet
EndChar

StartChar: quotesingle
Encoding: 39 39 7
Width: 422
Flags: W
HStem: 760 495<-100 12>
VStem: -100 112<760 852.16>
LayerCount: 2
Fore
SplineSet
-177 1255 m 1
 57 1255 l 1
 12 760 l 1
 -100 760 l 1
 -177 1255 l 1
EndSplineSet
EndChar

StartChar: parenleft
Encoding: 40 40 8
Width: 674
Flags: W
VStem: -64 210<469.906 979.787>
LayerCount: 2
Fore
SplineSet
-24 427 m 0
 -51 545 -64 647 -64 735 c 0
 -64 1012 61 1160 266 1283 c 1
 298 1302 l 1
 328 1172 l 1
 317 1164 l 1
 185 1077 146 935 146 790 c 0
 146 670 173 547 195 451 c 0
 197 443 199 435 200 427 c 0
 292 30 414 -196 673 -320 c 1
 703 -451 l 1
 662 -432 l 1
 313 -268 88 -56 -24 427 c 0
EndSplineSet
EndChar

StartChar: parenright
Encoding: 41 41 9
Width: 674
Flags: W
VStem: 329 211<-128.758 387.3>
LayerCount: 2
Fore
SplineSet
500 427 m 0
 527 309 540 207 540 118 c 0
 540 -160 414 -309 212 -432 c 1
 179 -452 l 1
 149 -320 l 1
 275 -243 329 -126 329 50 c 0
 329 154 310 278 276 427 c 0
 219 677 134 1004 -181 1164 c 1
 -196 1172 l 1
 -226 1303 l 1
 -184 1283 l 1
 164 1118 389 911 500 427 c 0
EndSplineSet
EndChar

StartChar: asterisk
Encoding: 42 42 10
Width: 818
Flags: W
HStem: 416 658<229 247>
LayerCount: 2
Fore
SplineSet
-112 810 m 1
 -82 978 l 1
 161 836 l 1
 77 1074 l 1
 247 1074 l 1
 272 836 l 1
 450 978 l 1
 556 809 l 1
 377 744 l 1
 586 682 l 1
 557 514 l 1
 314 653 l 1
 399 416 l 1
 229 416 l 1
 203 654 l 1
 26 510 l 1
 -82 679 l 1
 97 744 l 1
 -112 810 l 1
EndSplineSet
EndChar

StartChar: plus
Encoding: 43 43 11
Width: 1046
Flags: W
HStem: 379 166<-12 315 520 845>
LayerCount: 2
Fore
SplineSet
604 12 m 1
 438 12 l 1
 354 379 l 1
 -12 379 l 1
 -51 545 l 1
 315 545 l 1
 230 913 l 1
 396 913 l 1
 481 545 l 1
 845 545 l 1
 884 379 l 1
 520 379 l 1
 604 12 l 1
EndSplineSet
EndChar

StartChar: comma
Encoding: 44 44 12
Width: 475
Flags: W
HStem: -309 532
VStem: 249 150<-146.209 -56.3281>
LayerCount: 2
Fore
SplineSet
237 -40 m 0
 205 -12 112 1 89 98 c 0
 86 109 85 120 85 130 c 0
 85 190 131 223 195 223 c 0
 285 223 365 151 388 52 c 0
 395 21 399 -8 399 -35 c 0
 399 -187 288 -264 176 -300 c 1
 146 -309 l 1
 118 -188 l 1
 166 -170 249 -143 249 -77 c 0
 249 -70 251 -63 249 -56 c 0
 246 -48 242 -44 237 -40 c 0
EndSplineSet
EndChar

StartChar: hyphen
Encoding: 45 45 13
Width: 678
Flags: W
HStem: 322 187<0 485>
VStem: -43 572
LayerCount: 2
Fore
SplineSet
0 322 m 1
 -43 509 l 1
 485 509 l 1
 529 322 l 1
 0 322 l 1
EndSplineSet
EndChar

StartChar: period
Encoding: 46 46 14
Width: 418
Flags: W
HStem: -45 268<109.781 265.969>
VStem: 51 275<13.6076 163.09>
LayerCount: 2
Fore
SplineSet
322 89 m 0
 324 79 326 69 326 59 c 0
 326 3 288 -45 219 -45 c 0
 139 -45 70 20 54 89 c 0
 52 99 51 108 51 118 c 0
 51 175 89 223 158 223 c 0
 236 223 306 159 322 89 c 0
EndSplineSet
EndChar

StartChar: slash
Encoding: 47 47 15
Width: 777
Flags: W
VStem: 85 331
LayerCount: 2
Fore
SplineSet
273 -43 m 1
 85 -43 l 1
 230 1240 l 1
 416 1240 l 1
 273 -43 l 1
EndSplineSet
EndChar

StartChar: zero
Encoding: 48 48 16
Width: 1115
Flags: W
HStem: 0 121<398.35 637.985> 1122 122<180.583 430.01>
VStem: -60 203<636.95 1083.75> 682 210<165.266 625.965>
LayerCount: 2
Fore
SplineSet
275 1244 m 0
 466 1244 733 1159 856 626 c 0
 881 520 892 429 892 352 c 0
 892 102 767 -0 554 0 c 0
 366 0 101 83 -25 626 c 0
 -49 731 -60 819 -60 892 c 0
 -60 1193 121 1244 275 1244 c 0
526 121 m 0
 622 121 682 172 682 330 c 0
 682 403 669 500 640 626 c 0
 550 1020 436 1122 295 1122 c 0
 189 1122 143 1063 143 936 c 0
 143 858 160 756 190 626 c 0
 270 282 356 121 526 121 c 0
EndSplineSet
EndChar

StartChar: one
Encoding: 49 49 17
Width: 932
Flags: W
HStem: 0 96<109 159.123 771.769 836> 1210 20G<222.356 353.627>
LayerCount: 2
Fore
SplineSet
349 1230 m 1
 600 145 l 1
 836 95 l 1
 858 0 l 1
 109 0 l 1
 87 96 l 1
 352 145 l 1
 150 1019 l 1
 -81 934 l 1
 -102 1028 l 1
 258 1230 l 1
 349 1230 l 1
EndSplineSet
EndChar

StartChar: two
Encoding: 50 50 18
Width: 1085
Flags: W
HStem: 0 189<288 918> 1096 125<57.9425 410.379>
VStem: -44 101<900 962.048> 529 215<613.043 969.161>
LayerCount: 2
Fore
SplineSet
-108 1177 m 1
 59 1219 123 1221 202 1221 c 0
 596 1221 702 1026 732 897 c 0
 740 861 744 826 744 794 c 0
 744 634 650 519 542 413 c 1
 288 189 l 1
 918 189 l 1
 962 0 l 1
 123 0 l 1
 86 162 l 1
 346 433 l 1
 471 553 529 643 529 766 c 0
 529 804 524 844 513 890 c 0
 474 1055 366 1096 231 1096 c 0
 155 1096 92 1076 57 1056 c 1
 57 900 l 1
 -44 900 l 1
 -108 1177 l 1
EndSplineSet
EndChar

StartChar: three
Encoding: 51 51 19
Width: 1103
Flags: W
HStem: -18 124<254.363 669.287> 561 139<222 494.623> 1095 125<72.5524 424.056>
VStem: -31 102<899 961.048> 527 220<730.043 992.236> 717 218<153.584 430.93>
LayerCount: 2
Fore
SplineSet
-95 1176 m 1xf8
 -2 1202 78 1220 219 1220 c 0
 549 1220 694 1096 737 910 c 0
 744 881 747 854 747 829 c 0xf8
 747 736 701 671 621 635 c 1
 774 595 885 506 924 339 c 0
 931 307 935 278 935 250 c 0
 935 62 766 -18 521 -18 c 0
 359 -18 243 3 145 25 c 1
 64 324 l 1
 170 324 l 1
 253 147 l 1
 298 128 391 106 477 106 c 0
 659 106 717 163 717 260 c 0xf4
 717 287 713 316 705 349 c 0
 670 501 561 561 393 561 c 1
 222 561 l 1
 194 700 l 1
 361 700 l 1
 466 700 527 738 527 830 c 0
 527 850 524 873 518 899 c 0
 484 1047 398 1095 248 1095 c 0
 171 1095 107 1075 71 1055 c 1
 71 899 l 1
 -31 899 l 1
 -95 1176 l 1xf8
EndSplineSet
EndChar

StartChar: four
Encoding: 52 52 20
Width: 1100
Flags: W
HStem: 0 21G<641.353 851> 241 179<135 549 795 917> 1194 20G<410.981 575.61>
LayerCount: 2
Fore
SplineSet
958 241 m 1
 795 241 l 1
 851 0 l 1
 646 0 l 1
 590 241 l 1
 0 241 l 1
 -32 390 l 1
 422 1214 l 1
 571 1214 l 1
 754 420 l 1
 917 420 l 1
 958 241 l 1
549 420 m 1
 416 931 l 1
 135 420 l 1
 549 420 l 1
EndSplineSet
EndChar

StartChar: five
Encoding: 53 53 21
Width: 1077
Flags: W
HStem: -19 125<255.595 646.158> 604 126<142.237 556.815> 1041 189<72 609>
VStem: 697 214<157.013 455.056>
LayerCount: 2
Fore
SplineSet
324 604 m 0
 274 604 221 600 161 582 c 1
 47 582 l 1
 -103 1230 l 1
 609 1230 l 1
 653 1041 l 1
 72 1041 l 1
 147 714 l 1
 215 727 290 730 344 730 c 0
 604 730 831 658 898 370 c 0
 907 332 911 297 911 264 c 0
 911 72 760 -19 500 -19 c 0
 286 -19 170 16 134 26 c 1
 65 324 l 1
 170 324 l 1
 253 146 l 1
 300 125 379 106 455 106 c 0
 637 106 697 162 697 264 c 0
 697 293 692 325 684 361 c 0
 644 532 573 604 324 604 c 0
EndSplineSet
EndChar

StartChar: six
Encoding: 54 54 22
Width: 1111
Flags: W
HStem: -18 121<417.887 692.551> 611 136<218.75 600.48> 1095 125<237.707 548.367>
VStem: -49 207<686.505 1013.18> 720 211<130.721 458.68>
LayerCount: 2
Fore
SplineSet
345 1220 m 0
 460 1220 562 1205 657 1184 c 1
 715 931 l 1
 612 931 l 1
 547 1062 l 1
 508 1078 434 1095 374 1095 c 0
 279 1095 158 1052 158 842 c 0
 158 798 164 746 176 685 c 1
 243 716 348 747 466 747 c 0
 654 747 850 668 915 386 c 0
 925 341 931 299 931 260 c 0
 931 86 823 -18 593 -18 c 0
 390 -18 100 74 -21 596 c 0
 -40 679 -49 752 -49 815 c 0
 -49 1132 163 1220 345 1220 c 0
458 611 m 0
 362 611 272 596 199 575 c 1
 287 210 416 103 561 103 c 0
 665 103 720 136 720 243 c 0
 720 277 715 319 703 369 c 0
 658 565 574 611 458 611 c 0
EndSplineSet
EndChar

StartChar: seven
Encoding: 55 55 23
Width: 1062
Flags: W
HStem: 0 21G<157 375.061> 1019 211<20 501>
VStem: -86 106<872 933.835>
LayerCount: 2
Fore
SplineSet
20 872 m 1
 -86 872 l 1
 -169 1230 l 1
 679 1230 l 1
 706 1112 l 1
 369 0 l 1
 157 0 l 1
 501 1019 l 1
 20 1019 l 1
 20 872 l 1
EndSplineSet
EndChar

StartChar: eight
Encoding: 56 56 24
Width: 1123
Flags: W
HStem: -18 121<366.686 699.123> 575 129<276.249 536.735> 1104 122<180.715 461.867>
VStem: -52 211<809.169 1079.49> 40 208<244.501 543.842> 564 211<728.798 994.671> 734 212<140.889 428.779>
LayerCount: 2
Fore
SplineSet
289 1226 m 0xf0
 537 1226 715 1120 766 901 c 0
 772 873 775 848 775 825 c 0xf4
 775 733 730 675 680 640 c 1
 783 594 895 502 933 337 c 0
 942 298 946 263 946 231 c 0
 946 35 778 -18 568 -18 c 0
 247 -18 100 124 51 337 c 0
 44 369 40 399 40 425 c 0xea
 40 537 98 603 164 641 c 1
 83 684 -10 763 -42 901 c 0
 -49 930 -52 958 -52 986 c 0
 -52 1117 31 1226 289 1226 c 0xf0
540 103 m 0
 686 103 734 154 734 243 c 0
 734 271 729 304 721 339 c 0
 686 491 616 575 431 575 c 0
 295 575 248 531 248 444 c 0xea
 248 414 254 379 263 339 c 0
 299 180 358 103 540 103 c 0
402 704 m 0
 499 704 564 729 564 826 c 0
 564 847 561 872 554 901 c 0
 518 1058 428 1104 310 1104 c 0
 219 1104 159 1077 159 981 c 0xf4
 159 959 163 932 170 901 c 0
 206 747 278 704 402 704 c 0
EndSplineSet
EndChar

StartChar: nine
Encoding: 57 57 25
Width: 1122
Flags: W
HStem: -18 124<276.103 604.105> 454 137<257.585 640.925> 1098 122<176.333 444.246>
VStem: -80 215<738.258 1056.36> 692 208<194.977 512.159>
LayerCount: 2
Fore
SplineSet
484 -18 m 0
 299 -18 200 10 168 17 c 1
 109 271 l 1
 213 271 l 1
 277 135 l 1
 312 122 377 106 452 106 c 0
 556 106 692 145 692 364 c 0
 692 407 687 456 675 514 c 1
 607 480 517 454 405 454 c 0
 210 454 -2 548 -66 827 c 0
 -75 867 -80 905 -80 940 c 0
 -80 1121 46 1220 280 1220 c 0
 560 1220 763 1076 871 606 c 0
 891 519 900 444 900 378 c 0
 900 52 673 -18 484 -18 c 0
425 591 m 0
 514 591 588 608 649 630 c 1
 558 1009 445 1098 312 1098 c 0
 203 1098 135 1055 135 936 c 0
 135 904 140 867 150 824 c 0
 192 641 290 591 425 591 c 0
EndSplineSet
EndChar

StartChar: colon
Encoding: 58 58 26
Width: 417
Flags: W
HStem: -23 268<104.781 259.969> 617 268<-42.2186 113.591>
VStem: -102 275<675.608 825.462> 45 275<36.5383 185.898>
LayerCount: 2
Fore
SplineSet
316 111 m 0xd0
 318 101 320 91 320 81 c 0
 320 25 282 -23 214 -23 c 0
 134 -23 65 42 49 111 c 0
 47 121 45 131 45 141 c 0
 45 198 84 245 152 245 c 0
 230 245 300 181 316 111 c 0xd0
169 751 m 0
 171 740 173 730 173 720 c 0
 173 658 127 617 67 617 c 0
 -13 617 -82 682 -98 751 c 0
 -100 761 -102 771 -102 781 c 0xe0
 -102 837 -64 885 5 885 c 0
 85 885 153 819 169 751 c 0
EndSplineSet
EndChar

StartChar: semicolon
Encoding: 59 59 27
Width: 475
Flags: W
HStem: 617 268<7.5344 163.285>
VStem: -52 274<674.588 826.392> 249 150<-146.209 -56.3281>
LayerCount: 2
Fore
SplineSet
237 -40 m 0
 205 -12 112 1 89 98 c 0
 86 109 85 120 85 130 c 0
 85 190 131 223 195 223 c 0
 285 223 365 151 388 52 c 0
 395 21 399 -8 399 -35 c 0
 399 -187 288 -264 176 -300 c 1
 146 -309 l 1
 118 -188 l 1
 166 -170 249 -143 249 -77 c 0
 249 -70 251 -63 249 -56 c 0
 246 -48 242 -44 237 -40 c 0
218 751 m 0
 221 740 222 729 222 719 c 0
 222 657 177 617 118 617 c 0
 40 617 -33 679 -49 751 c 0
 -51 761 -52 770 -52 780 c 0
 -52 837 -13 885 56 885 c 0
 135 885 202 820 218 751 c 0
EndSplineSet
EndChar

StartChar: less
Encoding: 60 60 28
Width: 1051
Flags: W
LayerCount: 2
Fore
SplineSet
765 913 m 1
 807 734 l 1
 295 520 l 1
 907 299 l 1
 948 121 l 1
 -37 485 l 1
 -53 556 l 1
 765 913 l 1
EndSplineSet
EndChar

StartChar: equal
Encoding: 61 61 29
Width: 1046
Flags: W
HStem: 276 167<11 869> 587 167<-61 797>
LayerCount: 2
Fore
SplineSet
-99 754 m 1
 797 754 l 1
 835 587 l 1
 -61 587 l 1
 -99 754 l 1
-27 443 m 1
 869 443 l 1
 907 276 l 1
 11 276 l 1
 -27 443 l 1
EndSplineSet
EndChar

StartChar: greater
Encoding: 62 62 30
Width: 1051
Flags: W
LayerCount: 2
Fore
SplineSet
-136 913 m 1
 848 556 l 1
 864 485 l 1
 47 121 l 1
 6 299 l 1
 516 520 l 1
 -94 734 l 1
 -136 913 l 1
EndSplineSet
EndChar

StartChar: question
Encoding: 63 63 31
Width: 847
Flags: W
HStem: -45 268<245.781 402.195> 1085 160<-28.3402 287.249>
VStem: -139 108<927 989.123> 187 274<13.6076 164.392> 364 211<685.101 988.227>
LayerCount: 2
Fore
SplineSet
-202 1200 m 1xe8
 -122 1224 -39 1245 78 1245 c 0
 433 1245 531 1046 561 914 c 0
 571 873 575 836 575 802 c 0
 575 645 478 565 345 536 c 1
 325 531 l 1
 357 289 l 1
 226 289 l 1
 105 628 l 1
 275 665 l 1
 338 678 364 721 364 789 c 0
 364 822 358 860 348 903 c 0
 310 1064 259 1085 113 1085 c 0
 52 1085 3 1071 -31 1050 c 1
 -31 927 l 1
 -139 927 l 1
 -202 1200 l 1xe8
457 89 m 0
 459 79 461 69 461 59 c 0
 461 3 423 -45 355 -45 c 0
 275 -45 206 20 190 89 c 0
 188 99 187 108 187 118 c 0xf0
 187 175 225 223 294 223 c 0
 373 223 442 158 457 89 c 0
EndSplineSet
EndChar

StartChar: at
Encoding: 64 64 32
Width: 1343
Flags: W
HStem: -380 143<357.191 742.675> -49 201<472.938 604.335> -16 197<821 974.561> 557 184<498.304 654.015> 995 131<440.183 823.256>
VStem: -3 146<110.747 642.795> 237 211<166.395 509.053> 664 210<215.572 556.371> 1023 126<226.706 729.602>
LayerCount: 2
Fore
SplineSet
460 239 m 0xdf80
 470 197 484 152 521 152 c 0
 549 152 632 173 658 319 c 0
 662 343 664 369 664 396 c 0
 664 444 659 497 653 552 c 1
 633 556 615 557 599 557 c 0
 479 557 448 446 448 347 c 0
 448 306 454 267 460 239 c 0xdf80
952 -230 m 1
 853 -314 721 -380 540 -380 c 0
 388 -380 171 -302 66 21 c 0
 19 168 -3 303 -3 423 c 0
 -3 871 292 1126 625 1126 c 0
 835 1126 1023 998 1092 784 c 0
 1103 748 1114 712 1122 677 c 0
 1140 599 1149 519 1149 443 c 0
 1149 194 1053 -16 859 -16 c 0xbf80
 783 -16 726 23 701 125 c 1
 672 43 615 -49 486 -49 c 0xdf80
 349 -49 287 75 255 214 c 0
 244 259 237 312 237 366 c 0
 237 544 314 741 598 741 c 0
 667 741 750 731 848 711 c 1
 874 706 l 1
 874 682 l 1
 874 398 890 245 902 193 c 0
 905 181 910 181 933 181 c 1xbf80
 968 186 1023 282 1023 447 c 0
 1023 507 1016 576 998 652 c 0
 975 752 928 995 647 995 c 0
 408 995 278 868 203 692 c 0
 160 591 143 483 143 380 c 0
 143 128 246 -103 338 -179 c 0
 363 -200 417 -237 516 -237 c 0
 617 -237 778 -206 883 -106 c 2
 916 -75 l 1
 952 -230 l 1
EndSplineSet
EndChar

StartChar: A
Encoding: 65 65 33
Width: 1448
Flags: W
HStem: 0 48<-3 60.437 339.823 431 835 908.869 1292.47 1384> 396 131<317 716> 1197 20G<282.13 533.196>
LayerCount: 2
Fore
SplineSet
431 48 m 1
 442 0 l 1
 -3 0 l 1
 -14 48 l 1
 121 74 l 1
 285 1217 l 1
 521 1217 l 1
 1218 74 l 1
 1384 48 l 1
 1395 0 l 1
 835 0 l 1
 824 48 l 1
 972 73 l 1
 793 396 l 1
 304 396 l 1
 272 73 l 1
 431 48 l 1
716 527 m 1
 402 1014 l 1
 317 527 l 1
 716 527 l 1
EndSplineSet
EndChar

StartChar: B
Encoding: 66 66 34
Width: 1373
Flags: W
HStem: -6 131<186.529 230 461 911.604> 0 93<102 166.443> 563 131<361 707.537> 1076 131<243 647.947> 1159 48<-166 -65.648>
VStem: 756 238<738.592 978.058> 979 239<182.808 438.07>
LayerCount: 2
Fore
SplineSet
517 694 m 2x34
 699 694 756 748 756 833 c 0
 756 854 753 876 747 900 c 0
 715 1041 595 1076 417 1076 c 2
 243 1076 l 1
 331 694 l 1
 517 694 l 2x34
720 125 m 0xa2
 912 125 979 187 979 287 c 0
 979 308 976 331 970 356 c 0
 941 480 852 563 567 563 c 2
 361 563 l 1
 461 130 l 1
 545 130 633 125 720 125 c 0xa2
775 -6 m 0
 566 -6 524 0 359 0 c 2
 102 0 l 1
 81 93 l 1
 230 118 l 1
 -5 1136 l 1
 -166 1159 l 1
 -177 1207 l 1x6a
 426 1207 l 2
 709 1207 931 1148 986 910 c 0
 992 885 994 862 994 841 c 0x34
 994 747 943 685 870 648 c 1
 1039 609 1171 512 1207 357 c 0
 1213 330 1218 300 1218 269 c 0
 1218 138 1137 -6 775 -6 c 0
EndSplineSet
EndChar

StartChar: C
Encoding: 67 67 35
Width: 1412
Flags: W
HStem: -18 119<541.521 1010.34> 1098 122<315.79 807.315>
VStem: -53 237<534.567 970.616> 1070 106<303.852 372>
LayerCount: 2
Fore
SplineSet
211 591 m 0
 308 168 585 101 766 101 c 0
 937 101 1029 147 1070 181 c 1
 1070 372 l 1
 1176 372 l 1
 1245 44 l 1
 1135 11 991 -18 791 -18 c 0
 363 -18 62 199 -28 589 c 0
 -45 662 -53 730 -53 790 c 0
 -53 1074 132 1220 509 1220 c 0
 687 1220 830 1197 967 1169 c 1
 1045 861 l 1
 938 861 l 1
 871 1026 l 1
 758 1084 625 1098 546 1098 c 0
 327 1098 184 1028 184 793 c 0
 184 736 193 669 211 591 c 0
EndSplineSet
EndChar

StartChar: D
Encoding: 68 68 36
Width: 1489
Flags: W
HStem: -4 131<423 891.119> 0 48<76 150.443> 1076 131<206 623.235> 1159 48<-192 -95.8293>
VStem: 1025 238<252.355 676.696>
LayerCount: 2
Fore
SplineSet
661 127 m 0xa8
 882 127 1025 199 1025 426 c 0
 1025 479 1017 540 1001 611 c 0
 914 989 602 1076 343 1076 c 2
 206 1076 l 1
 423 133 l 1
 472 133 574 127 661 127 c 0xa8
691 -4 m 0
 506 -4 390 0 256 0 c 2
 76 0 l 1
 65 48 l 1
 214 73 l 1
 -31 1135 l 1
 -192 1159 l 1
 -203 1207 l 1x58
 370 1207 l 2
 767 1207 1129 1088 1239 610 c 0
 1254 546 1263 481 1263 420 c 0
 1263 186 1130 -4 691 -4 c 0
EndSplineSet
EndChar

StartChar: E
Encoding: 69 69 37
Width: 1290
Flags: W
HStem: 0 131<436 963.739> 0 48<76 149.869> 548 131<339 613> 1076 131<218 697.994> 1159 48<-192 -96.4267>
VStem: 613 112<760.927 823> 967 105<288.849 369>
LayerCount: 2
Fore
SplineSet
65 48 m 1x66
 213 73 l 1
 -32 1135 l 1
 -192 1159 l 1
 -203 1207 l 1
 802 1207 l 1x6e
 881 868 l 1
 775 868 l 1
 700 1065 l 1
 658 1070 565 1076 406 1076 c 2
 218 1076 l 1
 309 679 l 1
 613 679 l 1
 613 823 l 1
 725 823 l 1
 822 403 l 1
 710 403 l 1
 646 548 l 1
 339 548 l 1
 436 131 l 1
 669 131 l 2xb6
 729 131 899 133 967 142 c 1
 967 369 l 1
 1072 369 l 1
 1138 0 l 1
 76 0 l 1
 65 48 l 1x66
EndSplineSet
EndChar

StartChar: F
Encoding: 70 70 38
Width: 1209
Flags: W
HStem: 0 48<84 151.561 521.871 640> 517 131<332 655> 1076 131<217 696> 1159 48<-196 -99.8293>
VStem: 655 101<729.779 792>
LayerCount: 2
Fore
SplineSet
332 517 m 1xe8
 434 73 l 1
 640 48 l 1
 651 0 l 1
 84 0 l 1
 73 48 l 1
 210 73 l 1
 -35 1135 l 1
 -196 1159 l 1
 -207 1207 l 1
 799 1207 l 1xd8
 878 868 l 1
 771 868 l 1
 696 1066 l 1
 656 1066 568 1076 408 1076 c 2
 217 1076 l 1
 315 648 l 1
 655 648 l 1
 655 792 l 1
 756 792 l 1
 853 371 l 1
 752 371 l 1
 683 517 l 1
 332 517 l 1xe8
EndSplineSet
EndChar

StartChar: G
Encoding: 71 71 39
Width: 1466
Flags: W
HStem: -18 119<543.781 1012.3> 458 94<789 895.585 1227.02 1279> 1098 122<316.355 802.208>
VStem: -53 238<528.145 969.665>
LayerCount: 2
Fore
SplineSet
503 1220 m 0
 633 1220 795 1208 989 1160 c 1
 1059 857 l 1
 952 857 l 1
 887 1016 l 1
 798 1065 674 1098 539 1098 c 0
 325 1098 185 1025 185 793 c 0
 185 736 193 669 211 591 c 0
 268 342 411 101 760 101 c 0
 863 101 974 126 1026 149 c 1
 960 435 l 1
 789 458 l 1
 768 552 l 1
 1279 552 l 1
 1300 458 l 1
 1188 436 l 1
 1274 66 l 1
 1175 33 999 -18 804 -18 c 2
 785 -18 l 2
 363 -18 64 196 -27 589 c 0
 -45 665 -53 732 -53 792 c 0
 -53 1124 200 1220 503 1220 c 0
EndSplineSet
EndChar

StartChar: H
Encoding: 72 72 40
Width: 1499
Flags: W
HStem: 0 48<76 150.443 506.25 598 868 941.869 1296.68 1389> 556 131<327 863> 1159 48<-192 -95.8293 252.595 330 600 695.573 1043 1121>
LayerCount: 2
Fore
SplineSet
76 0 m 1
 65 48 l 1
 214 73 l 1
 -31 1135 l 1
 -192 1159 l 1
 -203 1207 l 1
 330 1207 l 1
 341 1159 l 1
 193 1135 l 1
 296 687 l 1
 863 687 l 1
 760 1135 l 1
 600 1159 l 1
 589 1207 l 1
 1121 1207 l 1
 1132 1159 l 1
 983 1135 l 1
 1228 73 l 1
 1389 48 l 1
 1400 0 l 1
 868 0 l 1
 857 48 l 1
 1005 73 l 1
 894 556 l 1
 327 556 l 1
 438 73 l 1
 598 48 l 1
 609 0 l 1
 76 0 l 1
EndSplineSet
EndChar

StartChar: I
Encoding: 73 73 41
Width: 707
Flags: W
HStem: 0 48<76 150.443 504.676 597> 1159 48<-192 -95.8293 250.997 329>
LayerCount: 2
Fore
SplineSet
191 1135 m 1
 436 73 l 1
 597 48 l 1
 608 0 l 1
 76 0 l 1
 65 48 l 1
 214 73 l 1
 -31 1135 l 1
 -192 1159 l 1
 -203 1207 l 1
 329 1207 l 1
 340 1159 l 1
 191 1135 l 1
EndSplineSet
EndChar

StartChar: J
Encoding: 74 74 42
Width: 935
Flags: W
HStem: -19 127<197.571 388.054> 1111 96<16 138.88 489.888 557>
VStem: 398 226<117.062 405.461>
LayerCount: 2
Fore
SplineSet
312 -19 m 0
 185 -19 125 5 93 16 c 1
 33 278 l 1
 137 278 l 1
 199 140 l 1
 216 126 249 108 301 108 c 0
 359 108 398 130 398 194 c 0
 398 209 396 227 391 247 c 2
 196 1090 l 1
 16 1111 l 1
 -7 1207 l 1
 557 1207 l 1
 580 1111 l 1
 448 1090 l 1
 609 395 l 2
 620 349 624 307 624 270 c 0
 624 48 452 -19 312 -19 c 0
EndSplineSet
EndChar

StartChar: K
Encoding: 75 75 43
Width: 1488
Flags: W
HStem: 0 48<76 150.443 509.077 616 1345.95 1424> 1159 48<-192 -95.8293 248.128 330 645 726.799 991.947 1062>
LayerCount: 2
Fore
SplineSet
1062 1207 m 1
 1073 1159 l 1
 926 1133 l 1
 605 736 l 1
 1277 75 l 1
 1424 48 l 1
 1435 0 l 1
 1103 0 l 1
 460 553 l 1
 351 446 l 1
 437 72 l 1
 616 48 l 1
 627 0 l 1
 76 0 l 1
 65 48 l 1
 214 73 l 1
 -31 1135 l 1
 -192 1159 l 1
 -203 1207 l 1
 330 1207 l 1
 341 1159 l 1
 192 1136 l 1
 304 648 l 1
 742 1142 l 1
 645 1159 l 1
 634 1207 l 1
 1062 1207 l 1
EndSplineSet
EndChar

StartChar: L
Encoding: 76 76 44
Width: 1239
Flags: W
HStem: 0 127<426 941.322> 0 48<76 150.443> 1159 48<-192 -95.8293 260.805 362>
VStem: 943 105<319.036 397>
LayerCount: 2
Fore
SplineSet
373 1159 m 1x70
 193 1136 l 1
 426 127 l 1
 646 127 l 2xb0
 822 127 908 136 943 142 c 1
 943 397 l 1
 1048 397 l 1
 1121 0 l 1
 76 0 l 1
 65 48 l 1
 214 73 l 1
 -31 1135 l 1
 -192 1159 l 1
 -203 1207 l 1
 362 1207 l 1
 373 1159 l 1x70
EndSplineSet
EndChar

StartChar: M
Encoding: 77 77 45
Width: 1819
Flags: W
HStem: 0 48<76 150.443 425.648 526 1218 1300.18 1654.68 1747> 1159 48<-192 -95.8293 1351 1429>
LayerCount: 2
Fore
SplineSet
890 0 m 1
 825 0 l 1
 169 894 l 1
 358 72 l 1
 526 48 l 1
 537 0 l 1
 76 0 l 1
 65 48 l 1
 214 73 l 1
 -31 1135 l 1
 -192 1159 l 1
 -203 1207 l 1
 205 1207 l 1
 839 325 l 1
 1042 1207 l 1
 1429 1207 l 1
 1440 1159 l 1
 1291 1135 l 1
 1586 73 l 1
 1747 48 l 1
 1758 0 l 1
 1218 0 l 1
 1207 48 l 1
 1363 72 l 1
 1122 903 l 1
 890 0 l 1
EndSplineSet
EndChar

StartChar: N
Encoding: 78 78 46
Width: 1510
Flags: W
HStem: 0 48<76 149.869 428.467 533> 1159 48<-192 -96.4266 682 786.715 1050.75 1132>
LayerCount: 2
Fore
SplineSet
1016 415 m 1
 850 1136 l 1
 682 1159 l 1
 671 1207 l 1
 1132 1207 l 1
 1143 1159 l 1
 995 1136 l 1
 1257 0 l 1
 1131 0 l 1
 148 983 l 1
 358 72 l 1
 533 48 l 1
 544 0 l 1
 76 0 l 1
 65 48 l 1
 213 73 l 1
 -32 1135 l 1
 -192 1159 l 1
 -203 1207 l 1
 200 1207 l 1
 1016 415 l 1
EndSplineSet
EndChar

StartChar: O
Encoding: 79 79 47
Width: 1502
Flags: W
HStem: -18 121<510.437 930.107> 1098 122<295.55 721.269>
VStem: -54 236<544.293 990.14> 1043 234<208.939 654.332>
LayerCount: 2
Fore
SplineSet
498 1098 m 0
 308 1098 182 1038 182 818 c 0
 182 759 191 689 210 605 c 0
 279 308 406 103 727 103 c 0
 962 103 1043 211 1043 386 c 0
 1043 450 1032 524 1013 605 c 0
 945 901 820 1098 498 1098 c 0
755 -18 m 0
 429 -18 86 113 -28 605 c 0
 -44 675 -54 744 -54 809 c 0
 -54 1038 67 1220 469 1220 c 0
 803 1220 1140 1089 1251 605 c 0
 1269 529 1277 462 1277 402 c 0
 1277 76 1032 -18 755 -18 c 0
EndSplineSet
EndChar

StartChar: P
Encoding: 80 80 48
Width: 1175
Flags: W
HStem: 0 48<84 151.561 517.459 631> 448 131<347 594.394> 1076 131<202 510.054> 1159 48<-196 -99.8293>
VStem: 659 231<643.146 926.695>
LayerCount: 2
Fore
SplineSet
385 579 m 2xe8
 589 579 659 645 659 753 c 0
 659 779 655 807 648 837 c 0
 609 1007 512 1076 266 1076 c 2
 202 1076 l 1
 316 579 l 1
 385 579 l 2xe8
877 838 m 0
 885 803 890 768 890 735 c 0
 890 577 787 448 458 448 c 2
 347 448 l 1
 433 73 l 1
 631 48 l 1
 642 0 l 1
 84 0 l 1
 73 48 l 1
 210 73 l 1
 -35 1135 l 1
 -196 1159 l 1
 -207 1207 l 1xd8
 273 1207 l 2
 660 1207 826 1059 877 838 c 0
EndSplineSet
EndChar

StartChar: Q
Encoding: 81 81 49
Width: 1518
Flags: W
HStem: -315 139<1266.4 1476> -272 100<1308.82 1476> -34 121<514.226 848.245> 1083 124<301.803 717.892>
VStem: -50 235<537.274 975.323> 1046 236<195.258 636.778>
LayerCount: 2
Fore
SplineSet
501 1083 m 0x3c
 266 1083 185 976 185 802 c 0
 185 739 196 666 214 587 c 0
 283 290 410 87 731 87 c 0
 965 87 1046 196 1046 369 c 0
 1046 434 1035 507 1016 587 c 0
 949 881 821 1083 501 1083 c 0x3c
1499 -272 m 1x7c
 1432 -305 1345 -315 1307 -315 c 0
 1148 -315 1047 -236 865 -68 c 1
 826 -31 l 1
 810 -33 788 -34 759 -34 c 0
 432 -34 90 97 -24 587 c 0
 -41 662 -50 731 -50 793 c 0
 -50 1065 118 1207 472 1207 c 0
 802 1207 1144 1074 1256 588 c 0
 1273 515 1282 448 1282 388 c 0
 1282 215 1212 96 1074 28 c 1
 1106 0 l 1
 1227 -113 1311 -176 1378 -176 c 0xbc
 1381 -176 1385 -173 1393 -173 c 2
 1436 -173 l 2
 1442 -173 1445 -172 1451 -172 c 2
 1476 -172 l 1
 1499 -272 l 1x7c
EndSplineSet
EndChar

StartChar: R
Encoding: 82 82 50
Width: 1399
Flags: W
HStem: 0 48<84 151.561 514.193 622 1253.95 1335> 504 131<335 513> 1076 131<203 570.365> 1159 48<-196 -99.8293>
VStem: 702 246<681.501 948.253>
LayerCount: 2
Fore
SplineSet
937 861 m 0xe8
 945 828 948 798 948 770 c 0
 948 641 874 559 766 519 c 1
 1188 74 l 1
 1335 48 l 1
 1346 0 l 1
 1018 0 l 1
 513 504 l 1
 335 504 l 1
 434 73 l 1
 622 48 l 1
 633 0 l 1
 84 0 l 1
 73 48 l 1
 210 73 l 1
 -35 1135 l 1
 -196 1159 l 1
 -207 1207 l 1xd8
 339 1207 l 2
 747 1207 889 1069 937 861 c 0xe8
438 635 m 2
 615 635 702 670 702 783 c 0
 702 806 699 831 692 859 c 0
 653 1025 556 1076 332 1076 c 2
 203 1076 l 1xe8
 304 635 l 1
 438 635 l 2
EndSplineSet
EndChar

StartChar: S
Encoding: 83 83 51
Width: 1151
Flags: W
HStem: -18 123<321.758 705.847> 1095 125<165.987 566.367>
VStem: -73 197<870.086 1050.74> 762 199<157.136 389.672>
LayerCount: 2
Fore
SplineSet
321 1220 m 0
 410 1220 515 1216 696 1177 c 1
 765 880 l 1
 662 880 l 1
 591 1038 l 1
 536 1070 450 1095 350 1095 c 0
 166 1095 124 1028 124 970 c 0
 124 960 126 949 128 940 c 0
 138 896 166 821 373 764 c 2
 516 724 l 1
 711 667 895 588 949 356 c 0
 957 323 961 290 961 259 c 0
 961 109 866 -18 566 -18 c 0
 343 -18 205 28 134 54 c 1
 59 375 l 1
 163 375 l 1
 238 198 l 1
 289 153 416 105 533 105 c 0
 714 105 762 181 762 260 c 0
 762 278 760 296 756 313 c 0
 745 359 718 447 507 508 c 1
 364 548 l 2
 173 602 -12 674 -64 901 c 0
 -70 928 -73 953 -73 976 c 0
 -73 1152 102 1220 321 1220 c 0
EndSplineSet
EndChar

StartChar: T
Encoding: 84 84 52
Width: 1400
Flags: W
HStem: 0 48<359 468.661 877.365 1004> 1080 127<-1.90659 318 560 889.698>
VStem: -93 88<873 935.185>
LayerCount: 2
Fore
SplineSet
359 0 m 1
 348 48 l 1
 550 72 l 1
 318 1080 l 1
 295 1080 l 2
 189 1080 60 1076 -5 1066 c 1
 -5 873 l 1
 -93 873 l 1
 -170 1207 l 1
 992 1207 l 1
 1069 873 l 1
 961 873 l 1
 892 1065 l 1
 844 1071 725 1080 580 1080 c 2
 560 1080 l 1
 792 72 l 1
 1004 48 l 1
 1015 0 l 1
 359 0 l 1
EndSplineSet
EndChar

StartChar: U
Encoding: 85 85 53
Width: 1509
Flags: W
HStem: -19 151<506.414 940.136> 1111 96<-199 -95.3898 229.917 310 693 801.823 1056.91 1131>
VStem: 1026 149<211.038 544.219>
LayerCount: 2
Fore
SplineSet
722 132 m 0
 919 132 1026 193 1026 333 c 0
 1026 358 1022 386 1015 417 c 2
 860 1089 l 1
 693 1111 l 1
 670 1207 l 1
 1131 1207 l 1
 1154 1111 l 1
 1005 1089 l 1
 1159 420 l 2
 1169 376 1175 333 1175 292 c 0
 1175 120 1073 -19 739 -19 c 0
 330 -19 168 186 118 403 c 2
 -40 1089 l 1
 -199 1111 l 1
 -222 1207 l 1
 310 1207 l 1
 333 1111 l 1
 182 1090 l 1
 337 420 l 2
 390 190 543 132 722 132 c 0
EndSplineSet
EndChar

StartChar: V
Encoding: 86 86 54
Width: 1500
Flags: W
HStem: 1112 95<-245 -155.997 200.998 270 702 797.989 1064.55 1122>
LayerCount: 2
Fore
SplineSet
1122 1207 m 1
 1144 1112 l 1
 1011 1088 l 1
 757 -29 l 1
 667 -29 l 1
 -96 1088 l 1
 -245 1112 l 1
 -267 1207 l 1
 270 1207 l 1
 292 1112 l 1
 146 1089 l 1
 687 287 l 1
 856 1089 l 1
 702 1112 l 1
 680 1207 l 1
 1122 1207 l 1
EndSplineSet
EndChar

StartChar: W
Encoding: 87 87 55
Width: 1962
Flags: W
HStem: 1113 94<-229 -158.515 188.529 260 1156 1262.66 1542.68 1584>
LayerCount: 2
Fore
SplineSet
1606 1113 m 1
 1500 1089 l 1
 1359 -29 l 1
 1271 -29 l 1
 775 757 l 1
 635 -29 l 1
 547 -29 l 1
 -111 1089 l 1
 -229 1113 l 1
 -251 1207 l 1
 260 1207 l 1
 282 1113 l 1
 119 1088 l 1
 554 332 l 1
 697 1121 l 1
 776 1121 l 1
 1270 335 l 1
 1342 1088 l 1
 1156 1113 l 1
 1134 1207 l 1
 1584 1207 l 1
 1606 1113 l 1
EndSplineSet
EndChar

StartChar: X
Encoding: 88 88 56
Width: 1452
Flags: W
HStem: 0 48<42 104.273 383.523 475 851 928.747 1306.76 1388> 1159 48<-169 -85.1895 285.816 368 607 703.051 975.909 1041>
LayerCount: 2
Fore
SplineSet
580 476 m 1
 341 69 l 1
 475 48 l 1
 486 0 l 1
 42 0 l 1
 31 48 l 1
 169 75 l 1
 436 618 l 1
 -17 1133 l 1
 -169 1159 l 1
 -180 1207 l 1
 368 1207 l 1
 379 1159 l 1
 249 1139 l 1
 550 828 l 1
 741 1139 l 1
 607 1159 l 1
 596 1207 l 1
 1041 1207 l 1
 1052 1159 l 1
 914 1133 l 1
 688 686 l 1
 1235 75 l 1
 1388 48 l 1
 1399 0 l 1
 851 0 l 1
 840 48 l 1
 970 69 l 1
 580 476 l 1
EndSplineSet
EndChar

StartChar: Y
Encoding: 89 89 57
Width: 1414
Flags: W
HStem: 0 48<319 414.66 844.004 965> 1159 48<-317 -233.19 147.427 232 604 701.621 972.012 1036>
LayerCount: 2
Fore
SplineSet
664 462 m 1
 754 73 l 1
 965 48 l 1
 976 0 l 1
 319 0 l 1
 308 48 l 1
 494 73 l 1
 405 457 l 1
 -165 1133 l 1
 -317 1159 l 1
 -328 1207 l 1
 232 1207 l 1
 243 1159 l 1
 103 1138 l 1
 546 649 l 1
 747 1138 l 1
 604 1159 l 1
 593 1207 l 1
 1036 1207 l 1
 1047 1159 l 1
 911 1133 l 1
 664 462 l 1
EndSplineSet
EndChar

StartChar: Z
Encoding: 90 90 58
Width: 1281
Flags: W
HStem: 0 126<360 956.41> 1080 127<69.95 568>
VStem: -25 92<872 933.571> 960 110<295.284 386>
LayerCount: 2
Fore
SplineSet
94 112 m 1
 568 1080 l 1
 371 1080 l 2
 251 1080 129 1075 67 1066 c 1
 67 872 l 1
 -25 872 l 1
 -103 1207 l 1
 819 1207 l 1
 845 1098 l 1
 360 126 l 1
 597 126 l 2
 707 126 885 137 960 151 c 1
 960 386 l 1
 1070 386 l 1
 1131 0 l 1
 120 0 l 1
 94 112 l 1
EndSplineSet
EndChar

StartChar: bracketleft
Encoding: 91 91 59
Width: 610
Flags: W
HStem: -281 89<472.449 579> 1207 87<162.529 236>
LayerCount: 2
Fore
SplineSet
140 -281 m 1
 -224 1294 l 1
 236 1294 l 1
 257 1207 l 1
 0 1168 l 1
 304 -155 l 1
 579 -192 l 1
 600 -281 l 1
 140 -281 l 1
EndSplineSet
EndChar

StartChar: backslash
Encoding: 92 92 60
Width: 777
Flags: W
LayerCount: 2
Fore
SplineSet
525 -43 m 1
 -211 1239 l 1
 -25 1239 l 1
 712 -43 l 1
 525 -43 l 1
EndSplineSet
EndChar

StartChar: bracketright
Encoding: 93 93 61
Width: 610
Flags: W
HStem: -281 89<140 219.352> 1207 87<-204 -102.545>
LayerCount: 2
Fore
SplineSet
140 -281 m 1
 119 -192 l 1
 378 -155 l 1
 72 1168 l 1
 -204 1207 l 1
 -224 1294 l 1
 236 1294 l 1
 600 -281 l 1
 140 -281 l 1
EndSplineSet
EndChar

StartChar: asciicircum
Encoding: 94 94 62
Width: 1029
Flags: W
LayerCount: 2
Fore
SplineSet
335 1090 m 1
 861 403 l 1
 667 403 l 1
 312 874 l 1
 175 403 l 1
 -18 403 l 1
 190 1090 l 1
 335 1090 l 1
EndSplineSet
EndChar

StartChar: underscore
Encoding: 95 95 63
Width: 1150
Flags: W
HStem: -627 142<220 1187>
LayerCount: 2
Fore
SplineSet
220 -627 m 1
 187 -485 l 1
 1187 -485 l 1
 1220 -627 l 1
 220 -627 l 1
EndSplineSet
EndChar

StartChar: grave
Encoding: 96 96 64
Width: 568
Flags: W
HStem: 931 324
VStem: -215 493
LayerCount: 2
Fore
SplineSet
196 931 m 1
 -199 1185 l 1
 -215 1255 l 1
 15 1255 l 1
 264 993 l 1
 278 931 l 1
 196 931 l 1
EndSplineSet
EndChar

StartChar: a
Encoding: 97 97 65
Width: 1088
Flags: W
HStem: -20 160<315.252 602.646> 0 90<928.125 1001> 453 120<278.153 545> 671 250<66 172.469> 835 126<177.803 466.09>
VStem: 39 216<197.76 425.861> 66 107<671 732.793>
LayerCount: 2
Fore
SplineSet
8 921 m 1x32
 176 959 268 961 324 961 c 2
 332 961 l 2
 599 961 708 855 745 695 c 2
 879 114 l 1
 1001 90 l 1
 1022 0 l 1
 711 0 l 1x6a
 678 71 l 1
 601 7 496 -20 387 -20 c 0
 229 -20 100 57 50 273 c 0
 43 305 39 333 39 358 c 0
 39 538 212 573 413 573 c 1
 545 573 l 1
 519 685 l 2
 491 805 430 835 348 835 c 0xac
 302 835 231 826 173 796 c 1
 173 671 l 1
 66 671 l 1
 8 921 l 1x32
427 140 m 2xa4
 437 140 l 2
 477 140 537 142 635 182 c 1
 572 453 l 1
 454 453 l 1
 312 453 255 422 255 344 c 0
 255 325 258 304 264 280 c 0
 289 173 347 140 427 140 c 2xa4
EndSplineSet
EndChar

StartChar: b
Encoding: 98 98 66
Width: 1161
Flags: W
HStem: -20 136<360.935 694.02> 810 155<211.833 566.652> 1330 91<-280 -195.179>
VStem: 752 229<170.678 568.167>
LayerCount: 2
Fore
SplineSet
557 116 m 0
 676 116 752 167 752 319 c 0
 752 367 745 425 729 494 c 0
 673 736 553 810 397 810 c 0
 320 810 247 798 210 786 c 1
 362 127 l 1
 419 120 495 116 557 116 c 0
593 -20 m 0
 498 -20 324 -5 152 54 c 1
 -138 1306 l 1
 -280 1330 l 1
 -301 1421 l 1
 63 1421 l 1
 146 1060 l 2
 149 1047 153 1033 155 1016 c 2
 167 965 l 2
 172 941 174 927 177 910 c 1
 235 944 315 965 411 965 c 0
 584 965 863 911 959 495 c 0
 974 432 981 373 981 319 c 0
 981 113 869 -20 593 -20 c 0
EndSplineSet
EndChar

StartChar: c
Encoding: 99 99 67
Width: 1078
Flags: W
HStem: -20 154<419.646 873.402> 835 130<256.996 610.293>
VStem: -37 230<396.165 771.366>
LayerCount: 2
Fore
SplineSet
945 69 m 1
 854 -10 702 -20 616 -20 c 0
 194 -20 42 222 -17 477 c 0
 -30 535 -37 587 -37 633 c 0
 -37 889 159 965 380 965 c 0
 501 965 613 950 702 934 c 1
 723 930 l 1
 794 622 l 1
 695 622 l 1
 610 796 l 1
 575 812 505 835 408 835 c 0
 276 835 193 780 193 627 c 0
 193 585 200 535 213 477 c 0
 264 254 372 134 646 134 c 0
 756 134 847 151 890 166 c 1
 920 176 l 1
 945 69 l 1
EndSplineSet
EndChar

StartChar: d
Encoding: 100 100 68
Width: 1209
Flags: W
HStem: -20 154<391.877 740.689> 0 90<1031.72 1104> 833 132<261.062 567.125> 1330 91<303 409.923>
VStem: -28 229<385.652 776.645>
LayerCount: 2
Fore
SplineSet
-7 462 m 0xb8
 -20 520 -28 578 -28 633 c 0
 -28 815 61 965 354 965 c 0
 423 965 501 956 569 946 c 1
 554 995 l 1
 482 1306 l 1
 303 1330 l 1
 282 1421 l 1
 681 1421 l 1
 983 114 l 1
 1104 90 l 1
 1125 0 l 1
 808 0 l 1x78
 787 51 l 1
 712 0 623 -20 532 -20 c 0
 269 -20 74 114 -7 462 c 0xb8
396 833 m 0
 277 833 201 778 201 627 c 0
 201 582 208 527 223 463 c 0
 281 213 401 134 557 134 c 0xb8
 633 134 701 147 746 163 c 1
 594 821 l 1
 536 828 458 833 396 833 c 0
EndSplineSet
EndChar

StartChar: e
Encoding: 101 101 69
Width: 1062
Flags: W
HStem: -20 154<401.546 828.719> 448 130<228 602> 835 130<233.074 492.518>
VStem: -31 221<579.232 792.083>
LayerCount: 2
Fore
SplineSet
200 578 m 1
 602 578 l 1
 560 743 496 835 358 835 c 0
 230 835 190 762 190 669 c 0
 190 640 194 609 200 578 c 1
906 68 m 1
 811 -5 671 -20 585 -20 c 0
 195 -20 56 194 -9 477 c 0
 -24 544 -31 602 -31 652 c 0
 -31 920 167 965 328 965 c 0
 577 965 763 851 832 550 c 2
 856 448 l 1
 228 448 l 1
 273 256 362 134 606 134 c 0
 702 134 810 152 855 162 c 2
 883 169 l 1
 906 68 l 1
EndSplineSet
EndChar

StartChar: f
Encoding: 102 102 70
Width: 940
Flags: W
HStem: 0 90<129 169.044 616.096 716> 806 139<335 562> 806 85<-80 -55.8217> 1312 130<259.702 394.226>
VStem: 21 232<954.805 1308.66>
LayerCount: 2
Fore
SplineSet
324 1442 m 0xb8
 391 1442 446 1429 498 1415 c 1
 555 1168 l 1
 464 1168 l 1
 386 1299 l 1
 373 1305 354 1312 321 1312 c 0
 281 1312 253 1298 253 1224 c 0
 253 1188 260 1139 274 1071 c 2
 300 945 l 1
 562 945 l 1xd8
 599 806 l 1xb8
 335 806 l 1xd8
 493 122 l 1
 716 91 l 1
 737 0 l 1
 129 0 l 1
 108 90 l 1
 240 121 l 1
 82 806 l 1
 -80 806 l 1
 -100 891 l 1
 51 940 l 1
 41 985 l 2
 27 1045 21 1098 21 1144 c 0
 21 1388 196 1442 324 1442 c 0xb8
EndSplineSet
EndChar

StartChar: g
Encoding: 103 103 71
Width: 1195
Flags: W
HStem: -442 130<397.098 844.918> -6 208<351.699 894.409> 290 126<322.069 593.448> 839 126<231.48 519.713>
VStem: -20 225<536.098 812.752> 144 187<-250.171 -36.6105> 618 234<442.535 726.37> 924 202<-245.224 -36.461>
LayerCount: 2
Fore
SplineSet
732 843 m 1xfb
 795 779 826 695 840 631 c 0
 848 597 852 566 852 538 c 0
 852 345 677 290 488 290 c 0
 431 290 372 296 332 302 c 1
 297 220 l 1
 315 211 365 202 413 202 c 2
 721 202 l 2
 1017 202 1095 25 1117 -71 c 0
 1123 -95 1126 -121 1126 -147 c 0
 1126 -286 1030 -442 643 -442 c 0
 267 -442 171 -291 148 -190 c 0
 145 -177 144 -164 144 -151 c 0xf7
 144 -82 188 -28 243 21 c 1
 121 81 100 159 93 192 c 1
 200 347 l 1
 92 401 22 498 -9 632 c 0
 -16 664 -20 693 -20 720 c 0
 -20 890 120 965 341 965 c 0
 410 965 501 951 549 940 c 1
 761 1057 l 1
 839 982 l 1
 732 843 l 1xfb
613 -312 m 0
 868 -312 924 -223 924 -144 c 0
 924 -130 922 -115 919 -102 c 0
 901 -25 840 -6 772 -6 c 2
 378 -6 l 1
 353 -35 331 -83 331 -135 c 0
 331 -149 333 -162 336 -176 c 0
 355 -258 413 -312 613 -312 c 0
217 630 m 0
 257 455 344 416 462 416 c 0
 555 416 618 442 618 543 c 0
 618 567 615 596 607 630 c 0
 574 769 514 839 366 839 c 0
 248 839 205 797 205 717 c 0xfb
 205 692 209 663 217 630 c 0
EndSplineSet
EndChar

StartChar: h
Encoding: 104 104 72
Width: 1205
Flags: W
HStem: 0 90<83 130.096 445.152 524 684 734.68 1046.92 1118> 798 167<303.323 606.078> 1330 91<-245 -158.387>
LayerCount: 2
Fore
SplineSet
475 798 m 0
 432 798 336 795 239 775 c 1
 392 114 l 1
 524 91 l 1
 545 0 l 1
 83 0 l 1
 62 90 l 1
 176 114 l 1
 -100 1306 l 1
 -245 1330 l 1
 -266 1421 l 1
 90 1421 l 1
 198 954 l 1
 205 914 l 2
 208 903 211 893 211 882 c 1
 286 923 437 965 531 965 c 0
 714 965 827 856 868 679 c 2
 999 114 l 1
 1118 90 l 1
 1139 0 l 1
 684 0 l 1
 663 90 l 1
 783 114 l 1
 656 661 l 2
 631 771 562 798 475 798 c 0
EndSplineSet
EndChar

StartChar: i
Encoding: 105 105 73
Width: 728
Flags: W
HStem: 0 91<112 182.989 528.245 628> 849 91<-55 29.7694> 1089 267<4.40918 159.348>
VStem: -55 275<1148.75 1297.16>
LayerCount: 2
Fore
SplineSet
51 1356 m 0
 130 1356 200 1291 216 1222 c 0
 218 1212 220 1202 220 1192 c 0
 220 1130 172 1089 113 1089 c 0
 44 1089 -33 1145 -51 1222 c 0
 -53 1233 -55 1243 -55 1253 c 0
 -55 1314 -9 1356 51 1356 c 0
271 940 m 1
 461 115 l 1
 628 91 l 1
 649 0 l 1
 112 0 l 1
 91 91 l 1
 245 115 l 1
 81 826 l 1
 -55 849 l 1
 -78 940 l 1
 271 940 l 1
EndSplineSet
EndChar

StartChar: j
Encoding: 106 106 74
Width: 612
Flags: W
HStem: -436 130<149.763 274.983> 849 91<-93 -5.192> 1089 267<-23.3913 131.969>
VStem: -83 274<1148.1 1296.46> 281 204<-301.964 31.5312>
LayerCount: 2
Fore
SplineSet
24 1356 m 0
 102 1356 172 1290 188 1222 c 0
 190 1212 191 1202 191 1193 c 0
 191 1136 152 1089 86 1089 c 0
 12 1089 -62 1149 -79 1222 c 0
 -81 1232 -83 1242 -83 1252 c 0
 -83 1308 -45 1356 24 1356 c 0
239 -436 m 0
 181 -436 141 -429 63 -413 c 1
 7 -169 l 1
 99 -169 l 1
 156 -289 l 1
 167 -296 189 -306 221 -306 c 0
 261 -306 281 -277 281 -214 c 0
 281 -177 273 -127 259 -65 c 2
 54 825 l 1
 -93 849 l 1
 -114 940 l 1
 243 940 l 1
 463 -14 l 2
 478 -79 485 -135 485 -182 c 0
 485 -398 343 -436 239 -436 c 0
EndSplineSet
EndChar

StartChar: k
Encoding: 107 107 75
Width: 1236
Flags: W
HStem: 0 90<83 125.346 440.455 497 713 737.342 1061.99 1127> 851 89<506 563.344 819.32 870> 1330 91<-244 -157.984>
LayerCount: 2
Fore
SplineSet
304 492 m 1
 590 830 l 1
 506 851 l 1
 485 940 l 1
 870 940 l 1
 891 851 l 1
 766 826 l 1
 571 587 l 1
 1010 114 l 1
 1127 90 l 1
 1148 0 l 1
 713 0 l 1
 692 89 l 1
 760 110 l 1
 406 459 l 1
 336 355 l 1
 391 115 l 1
 497 90 l 1
 518 0 l 1
 83 0 l 1
 62 90 l 1
 176 114 l 1
 -100 1306 l 1
 -244 1330 l 1
 -265 1421 l 1
 90 1421 l 1
 304 492 l 1
EndSplineSet
EndChar

StartChar: l
Encoding: 108 108 76
Width: 711
Flags: W
HStem: 0 91<91 161.989 511.236 607> 1329 92<-216 -116.843>
LayerCount: 2
Fore
SplineSet
139 1421 m 1
 440 116 l 1
 607 91 l 1
 628 0 l 1
 91 0 l 1
 70 91 l 1
 224 115 l 1
 -50 1305 l 1
 -216 1329 l 1
 -237 1421 l 1
 139 1421 l 1
EndSplineSet
EndChar

StartChar: m
Encoding: 109 109 77
Width: 1833
Flags: W
HStem: 0 91<101 146.1 471.345 556 686 742.697 1076.35 1161 1292 1349.28 1674.94 1748> 792 173<323.324 623.794 926.016 1238.32> 850 90<-95 -20.9307>
LayerCount: 2
Fore
SplineSet
674 655 m 2xc0
 654 741 600 792 492 792 c 0xc0
 379 792 298 777 281 774 c 2
 258 769 l 1
 410 114 l 1
 556 91 l 1
 577 0 l 1
 101 0 l 1
 80 90 l 1
 194 114 l 1
 29 826 l 1
 -95 850 l 1
 -116 940 l 1
 207 940 l 1xa0
 227 878 l 1
 281 909 423 965 543 965 c 0
 581 965 705 959 791 864 c 1
 874 913 1051 965 1160 965 c 0
 1314 965 1443 886 1491 679 c 2
 1622 114 l 1
 1748 90 l 1
 1769 0 l 1
 1292 0 l 1
 1271 91 l 1
 1406 114 l 1
 1281 655 l 2
 1255 768 1199 792 1125 792 c 0
 1074 792 932 780 878 770 c 2
 853 765 l 1
 867 736 878 704 886 672 c 2
 1015 114 l 1
 1161 91 l 1
 1182 0 l 1
 686 0 l 1
 665 91 l 1
 799 114 l 1
 674 655 l 2xc0
EndSplineSet
EndChar

StartChar: n
Encoding: 110 110 78
Width: 1214
Flags: W
HStem: 0 90<102 145.512 458.152 537 693 743.68 1055.92 1127> 798 167<317.901 614.34> 850 90<-94 -23.5147>
LayerCount: 2
Fore
SplineSet
667 655 m 2xc0
 643 760 578 798 484 798 c 0xc0
 429 798 331 791 275 780 c 1
 252 775 l 1
 405 114 l 1
 537 91 l 1
 558 0 l 1
 102 0 l 1
 81 90 l 1
 189 114 l 1
 24 826 l 1
 -94 850 l 1
 -115 940 l 1
 200 940 l 1xa0
 221 879 l 1
 296 922 443 965 540 965 c 0
 723 965 836 856 877 679 c 2
 1008 114 l 1
 1127 90 l 1
 1148 0 l 1
 693 0 l 1
 672 90 l 1
 792 114 l 1
 667 655 l 2xc0
EndSplineSet
EndChar

StartChar: o
Encoding: 111 111 79
Width: 1146
Flags: W
HStem: -20 129<385.957 695.25> 835 130<238.893 544.061>
VStem: -36 225<404.436 788.416> 746 229<161.343 552.72>
LayerCount: 2
Fore
SplineSet
358 965 m 0
 652 965 872 828 953 475 c 0
 968 410 975 353 975 304 c 0
 975 52 797 -20 577 -20 c 0
 195 -20 42 230 -15 475 c 0
 -28 531 -36 587 -36 639 c 0
 -36 820 57 965 358 965 c 0
547 109 m 0
 668 109 746 154 746 305 c 0
 746 351 739 407 723 475 c 0
 674 688 589 835 379 835 c 0
 240 835 189 772 189 656 c 0
 189 605 199 545 215 475 c 0
 269 244 348 109 547 109 c 0
EndSplineSet
EndChar

StartChar: p
Encoding: 112 112 80
Width: 1170
Flags: W
HStem: -436 92<173 219.096 572.34 676> -20 129<415.91 707.776> 810 155<228.44 573.638> 850 90<-112 -45.0987>
VStem: 764 229<161.822 555.011>
LayerCount: 2
Fore
SplineSet
413 -6 m 1xe8
 420 -26 427 -54 435 -86 c 2
 488 -318 l 1
 676 -342 l 1
 698 -436 l 1
 173 -436 l 1
 151 -344 l 1
 265 -320 l 1
 0 826 l 1
 -112 850 l 1
 -133 940 l 1
 180 940 l 1xd8
 189 907 l 1
 255 946 351 965 438 965 c 0
 748 965 911 744 972 481 c 0
 986 422 993 365 993 313 c 0
 993 116 887 -20 624 -20 c 0
 545 -20 472 -14 413 -6 c 1xe8
579 109 m 0
 692 109 764 163 764 311 c 0
 764 358 757 414 742 480 c 0
 684 731 566 810 412 810 c 0xe8
 331 810 265 798 226 786 c 1
 387 121 l 1
 465 111 540 109 579 109 c 0
EndSplineSet
EndChar

StartChar: q
Encoding: 113 113 81
Width: 1194
Flags: W
HStem: -436 93<742 796.682 1127.8 1191> -20 154<390.662 746.622> 833 132<255.651 592.869>
VStem: -30 230<390.265 772.68>
LayerCount: 2
Fore
SplineSet
349 965 m 0
 429 965 523 953 598 940 c 1
 680 985 l 1
 781 985 l 1
 1082 -320 l 1
 1191 -344 l 1
 1213 -436 l 1
 742 -436 l 1
 720 -343 l 1
 858 -319 l 1
 802 -79 l 2
 791 -31 784 7 780 37 c 1
 720 3 638 -20 531 -20 c 0
 268 -20 72 119 -9 467 c 0
 -23 527 -30 583 -30 634 c 0
 -30 835 81 965 349 965 c 0
395 833 m 0
 311 833 200 807 200 626 c 0
 200 583 207 531 221 468 c 0
 279 216 400 134 556 134 c 0
 634 134 709 146 748 158 c 1
 594 821 l 1
 536 828 458 833 395 833 c 0
EndSplineSet
EndChar

StartChar: r
Encoding: 114 114 82
Width: 935
Flags: W
HStem: 0 90<101 148.096 505.004 626> 781 184<326.527 503> 850 90<-95 -20.9307>
LayerCount: 2
Fore
SplineSet
228 892 m 1xa0
 340 925 476 965 561 965 c 2
 601 965 l 1
 668 677 l 1
 585 677 l 1
 503 781 l 1xc0
 439 781 346 764 270 743 c 1
 415 115 l 1
 626 91 l 1
 647 0 l 1
 101 0 l 1
 80 90 l 1
 194 114 l 1
 29 826 l 1
 -95 850 l 1
 -116 940 l 1
 206 940 l 1
 228 892 l 1xa0
EndSplineSet
EndChar

StartChar: s
Encoding: 115 115 83
Width: 975
Flags: W
HStem: -20 129<256.181 596.718> 835 130<171.77 480.661>
VStem: -37 196<656.011 816.84> 614 202<133.533 310.851>
LayerCount: 2
Fore
SplineSet
466 -20 m 0
 416 -20 256 -13 122 35 c 1
 59 308 l 1
 148 308 l 1
 233 167 l 1
 257 150 323 109 439 109 c 0
 571 109 614 145 614 204 c 0
 614 216 612 228 609 242 c 0
 602 272 584 342 417 383 c 2
 298 412 l 1
 148 454 12 512 -29 689 c 0
 -34 713 -37 735 -37 755 c 0
 -37 898 88 965 268 965 c 0
 318 965 405 964 565 934 c 2
 586 930 l 1
 644 679 l 1
 555 679 l 1
 481 798 l 1
 436 827 350 835 301 835 c 0
 189 835 159 794 159 749 c 0
 159 739 161 729 163 719 c 0
 171 685 190 631 354 589 c 1
 474 560 l 1
 624 516 764 453 806 272 c 0
 811 249 816 223 816 197 c 0
 816 93 753 -20 466 -20 c 0
EndSplineSet
EndChar

StartChar: t
Encoding: 116 116 84
Width: 795
Flags: W
HStem: -20 154<405.874 637.092> 806 134<248 432>
VStem: 64 104<1096.44 1153>
LayerCount: 2
Fore
SplineSet
671 47 m 1
 603 -7 499 -20 439 -20 c 0
 270 -20 196 96 170 208 c 2
 32 806 l 1
 -91 806 l 1
 -111 894 l 1
 9 936 l 1
 64 1153 l 1
 168 1153 l 1
 217 940 l 1
 432 940 l 1
 463 806 l 1
 248 806 l 1
 380 233 l 2
 400 148 452 134 485 134 c 0
 512 134 553 137 617 150 c 1
 646 155 l 1
 671 47 l 1
EndSplineSet
EndChar

StartChar: u
Encoding: 117 117 85
Width: 1216
Flags: W
HStem: -20 166<409.665 719.11> 0 90<1052.93 1127> 849 91<-110 -32.0869 476 567.626>
LayerCount: 2
Fore
SplineSet
488 -20 m 0xa0
 339 -20 196 43 145 265 c 2
 15 826 l 1
 -110 849 l 1
 -131 940 l 1
 205 940 l 1
 356 284 l 2
 382 175 456 146 557 146 c 0xa0
 645 146 716 155 775 170 c 1
 623 826 l 1
 476 849 l 1
 455 940 l 1
 812 940 l 1
 1003 114 l 1
 1127 90 l 1
 1148 0 l 1
 827 0 l 1x60
 805 62 l 1
 727 21 598 -20 488 -20 c 0xa0
EndSplineSet
EndChar

StartChar: v
Encoding: 118 118 86
Width: 1284
Flags: W
HStem: 849 91<-127 -61.8907 284.732 340 599 685.613 931.054 976>
LayerCount: 2
Fore
SplineSet
997 849 m 1
 905 829 l 1
 702 -20 l 1
 567 -20 l 1
 -18 825 l 1
 -127 849 l 1
 -148 940 l 1
 340 940 l 1
 361 849 l 1
 228 824 l 1
 623 260 l 1
 744 825 l 1
 599 849 l 1
 578 940 l 1
 976 940 l 1
 997 849 l 1
EndSplineSet
EndChar

StartChar: w
Encoding: 119 119 87
Width: 1730
Flags: W
HStem: 850 90<-127 -54.1731 296.603 351 1035 1122.16 1371.32 1422>
LayerCount: 2
Fore
SplineSet
1443 850 m 1
 1338 829 l 1
 1216 -20 l 1
 1094 -20 l 1
 729 553 l 1
 633 -20 l 1
 520 -20 l 1
 0 825 l 1
 -127 850 l 1
 -148 940 l 1
 351 940 l 1
 372 850 l 1
 230 823 l 1
 549 282 l 1
 645 846 l 1
 774 846 l 1
 1128 280 l 1
 1187 825 l 1
 1035 850 l 1
 1014 940 l 1
 1422 940 l 1
 1443 850 l 1
EndSplineSet
EndChar

StartChar: x
Encoding: 120 120 88
Width: 1284
Flags: W
HStem: 0 91<103 179.822 380.002 470 708 761.547 1077.67 1163> 850 90<-58 12.0258 355.877 397 553 627.938 866.713 920>
LayerCount: 2
Fore
SplineSet
649 527 m 1
 1038 112 l 1
 1163 91 l 1
 1184 0 l 1
 708 0 l 1
 687 91 l 1
 791 111 l 1
 531 383 l 1
 357 109 l 1
 470 91 l 1
 491 0 l 1
 103 0 l 1
 82 92 l 1
 198 108 l 1
 414 470 l 1
 69 824 l 1
 -58 850 l 1
 -79 940 l 1
 397 940 l 1
 418 850 l 1
 314 826 l 1
 523 616 l 1
 668 828 l 1
 553 850 l 1
 532 940 l 1
 920 940 l 1
 941 850 l 1
 827 828 l 1
 649 527 l 1
EndSplineSet
EndChar

StartChar: y
Encoding: 121 121 89
Width: 1253
Flags: W
HStem: -442 152<273.381 441.578> 849 91<-125 -59.8907 284.732 340 566 652.016 894.32 945>
LayerCount: 2
Fore
SplineSet
372 -442 m 0
 295 -442 253 -433 188 -419 c 1
 130 -171 l 1
 220 -171 l 1
 281 -276 l 1
 298 -285 320 -290 349 -290 c 0
 436 -290 485 -220 512 -48 c 1
 520 14 l 1
 -16 825 l 1
 -125 849 l 1
 -146 940 l 1
 340 940 l 1
 361 849 l 1
 228 824 l 1
 605 256 l 1
 710 825 l 1
 566 849 l 1
 545 940 l 1
 945 940 l 1
 966 849 l 1
 866 829 l 1
 684 -43 l 1
 619 -262 573 -442 372 -442 c 0
EndSplineSet
EndChar

StartChar: z
Encoding: 122 122 90
Width: 1103
Flags: W
HStem: 0 130<357 814.41> 810 130<77.8701 440>
VStem: -15 92<640 702.33> 816 93<279.936 374>
LayerCount: 2
Fore
SplineSet
96 0 m 1
 79 73 l 1
 440 810 l 1
 239 810 l 2
 149 810 95 795 77 784 c 1
 77 640 l 1
 -15 640 l 1
 -84 940 l 1
 710 940 l 1
 728 863 l 1
 357 130 l 1
 619 130 l 2
 691 130 783 146 816 168 c 1
 816 374 l 1
 909 374 l 1
 966 0 l 1
 96 0 l 1
EndSplineSet
EndChar

StartChar: braceleft
Encoding: 123 123 91
Width: 749
Flags: W
HStem: -281 92<530.018 718> 463 91<-32 86.8736> 1202 92<225.899 375>
VStem: 24 194<885.211 1192.26> 106 199<574.468 792.024>
CounterMasks: 1 e0
LayerCount: 2
Fore
SplineSet
638 -189 m 2xe8
 718 -189 l 1
 739 -281 l 1
 593 -281 l 2
 417 -281 305 -161 266 8 c 2
 205 274 l 2
 172 417 94 463 -7 463 c 2
 -32 463 l 1
 -53 554 l 1
 -28 554 l 2
 54 554 106 583 106 669 c 0xe8
 106 690 103 713 97 741 c 2
 36 1006 l 2
 28 1039 24 1073 24 1105 c 0
 24 1209 74 1294 229 1294 c 2
 375 1294 l 1
 396 1202 l 1
 316 1202 l 2
 257 1202 218 1182 218 1111 c 0xf0
 218 1090 222 1064 229 1033 c 2
 297 736 l 2
 302 713 305 690 305 669 c 0
 305 598 275 541 220 509 c 1
 310 467 378 387 402 280 c 2
 472 -20 l 2
 503 -156 562 -189 638 -189 c 2xe8
EndSplineSet
EndChar

StartChar: bar
Encoding: 124 124 92
Width: 341
Flags: W
VStem: -198 540
LayerCount: 2
Fore
SplineSet
151 -328 m 1
 -198 1183 l 1
 -7 1183 l 1
 342 -328 l 1
 151 -328 l 1
EndSplineSet
EndChar

StartChar: braceright
Encoding: 125 125 93
Width: 749
Flags: W
HStem: -281 92<140 288.168> 463 91<427.375 546> 1202 92<-203 -14.3728>
VStem: 209 199<124.844 442.186> 297 194<-179.659 33.76>
CounterMasks: 1 e0
LayerCount: 2
Fore
SplineSet
287 -281 m 2xe8
 140 -281 l 1
 119 -189 l 1
 199 -189 l 2
 258 -189 297 -169 297 -96 c 0xe8
 297 -76 294 -50 287 -20 c 2
 217 280 l 2
 212 305 209 328 209 349 c 0
 209 422 239 477 293 509 c 1
 204 551 136 634 112 736 c 2
 44 1033 l 2
 12 1169 -47 1202 -123 1202 c 2
 -203 1202 l 1
 -224 1294 l 1
 -77 1294 l 2
 126 1294 216 1149 249 1006 c 2
 310 741 l 2
 343 599 420 554 521 554 c 2
 546 554 l 1
 567 463 l 1
 542 463 l 2
 461 463 408 434 408 348 c 0xf0
 408 327 411 302 418 274 c 2
 479 8 l 2
 487 -26 491 -57 491 -87 c 0
 491 -204 427 -281 287 -281 c 2xe8
EndSplineSet
EndChar

StartChar: asciitilde
Encoding: 126 126 94
Width: 1095
Flags: W
HStem: 427 142<516.918 688.388> 644 143<113.249 300.388>
VStem: -45 146<427.391 633.482> -29 141<427 535.733> 702 145<580.387 787>
LayerCount: 2
Fore
SplineSet
651 427 m 0xe8
 476 427 300 644 193 644 c 0
 123 644 101 597 101 537 c 0xe8
 101 510 105 481 112 452 c 2
 117 427 l 1
 -24 427 l 1
 -29 452 l 2xd8
 -39 494 -45 536 -45 575 c 0
 -45 693 9 787 160 787 c 0
 211 787 284 773 428 672 c 1
 504 620 l 2
 571 575 601 569 619 569 c 0
 675 569 702 598 702 693 c 0
 702 714 699 738 696 766 c 2
 696 787 l 1
 838 787 l 1
 842 759 l 1
 842 728 847 696 847 665 c 0
 847 540 811 427 651 427 c 0xe8
EndSplineSet
EndChar

StartChar: sterling
Encoding: 163 163 95
Width: 945
Flags: W
HStem: -25 167<311 818> 452 147<0 89 301 561> 971 137<219.896 484.528>
VStem: 0 193<715.058 941.699> 190 131<152.299 449.111>
LayerCount: 2
Fore
SplineSet
302 968 m 1xf0
 215 950 193 900 193 855 c 0xf0
 193 814 211 776 213 766 c 2
 251 599 l 1
 561 599 l 1
 561 452 l 1
 301 452 l 1
 313 389 321 313 321 246 c 0
 321 205 318 167 311 137 c 1
 443 137 778 142 791 142 c 2
 818 142 l 1
 842 -25 l 1
 95 -25 l 1
 95 127 l 1
 109 130 l 1
 159 138 190 224 190 285 c 0xe8
 190 296 189 306 187 314 c 0
 183 328 160 392 145 452 c 1
 0 452 l 1
 0 599 l 1
 89 599 l 1
 49 695 22 776 7 841 c 0
 3 860 0 879 0 896 c 0
 0 1025 113 1108 291 1108 c 0
 376 1108 506 1087 628 1047 c 1
 693 767 l 1
 588 767 l 1
 528 895 l 1
 486 935 417 971 355 971 c 2
 346 971 l 1
 317 971 307 968 302 968 c 1xf0
EndSplineSet
EndChar

StartChar: sheva
Encoding: 1456 1456 126
Width: 0
VWidth: 1761
GlyphClass: 4
Flags: W
AnchorPoint: "M2V" -220 0 basemark 0
AnchorPoint: "N" -1.30859 0 mark 0
LayerCount: 2
Fore
SplineSet
32 -379 m 1
 40 -368 49 -363 59 -363 c 0
 69 -363 80 -368 92 -378 c 2
 171 -441 l 2
 194 -460 198 -480 184 -499 c 2
 134 -564 l 2
 119 -582 100 -583 76 -564 c 2
 0 -500 l 2
 -24 -480 -31 -460 -17 -441 c 1
 32 -379 l 1
-27 -122 m 1
 -19 -111 -10 -106 0 -106 c 0
 10 -106 21 -111 33 -121 c 2
 111 -184 l 2
 135 -203 138 -223 125 -242 c 2
 75 -307 l 2
 60 -325 40 -326 17 -307 c 2
 -61 -243 l 2
 -86 -223 -90 -203 -77 -184 c 1
 -27 -122 l 1
EndSplineSet
MultipleSubs2: "meteg-tenua-stage2" sheva meteg
LCarets2: 1 0 
Ligature2: "meteg-tenua-stage1" meteg sheva
EndChar

StartChar: hatafsegol
Encoding: 1457 1457 127
Width: 0
VWidth: 1761
GlyphClass: 4
Flags: W
AnchorPoint: "VR" -95.3086 0 mark 0
AnchorPoint: "M2V" -416.309 0 basemark 0
AnchorPoint: "H" -0.308594 0 mark 0
LayerCount: 2
Fore
SplineSet
-108 -379 m 1
 -100 -368 -91 -363 -81 -363 c 0
 -71 -363 -60 -368 -48 -378 c 2
 31 -441 l 2
 54 -460 58 -480 44 -499 c 2
 -6 -564 l 2
 -21 -582 -40 -583 -64 -564 c 2
 -142 -500 l 2
 -166 -480 -171 -460 -157 -441 c 1
 -108 -379 l 1
-11 -122 m 1
 -3 -111 5 -106 15 -106 c 0
 25 -106 37 -111 49 -121 c 1
 137 -184 l 2
 161 -201 166 -225 151 -242 c 2
 91 -307 l 1
 76 -325 56 -326 33 -307 c 2
 -45 -243 l 2
 -70 -223 -74 -203 -61 -184 c 1
 -11 -122 l 1
-323 -122 m 1
 -315 -111 -307 -106 -297 -106 c 0
 -287 -106 -275 -111 -263 -121 c 2
 -185 -184 l 2
 -161 -203 -158 -223 -171 -242 c 2
 -221 -307 l 2
 -236 -325 -256 -326 -279 -307 c 2
 -357 -243 l 2
 -382 -223 -386 -203 -373 -184 c 1
 -323 -122 l 1
328 -379 m 1
 336 -368 345 -363 355 -363 c 0
 365 -363 376 -368 388 -378 c 2
 467 -441 l 2
 490 -460 494 -480 480 -499 c 2
 430 -564 l 2
 415 -582 396 -583 372 -564 c 2
 294 -500 l 2
 270 -480 265 -460 279 -441 c 1
 328 -379 l 1
269 -122 m 1
 277 -111 285 -106 295 -106 c 0
 305 -106 317 -111 329 -121 c 2
 407 -184 l 2
 431 -203 434 -223 421 -242 c 2
 371 -307 l 2
 356 -325 336 -326 313 -307 c 2
 235 -243 l 2
 210 -223 206 -203 219 -184 c 1
 269 -122 l 1
EndSplineSet
LCarets2: 1 0 
MultipleSubs2: "meteg-tenua-stage2" hatafsegol meteg
Ligature2: "meteg-tenua-stage1" meteg hatafsegol
EndChar

StartChar: hatafpatah
Encoding: 1458 1458 128
Width: 0
VWidth: 1761
GlyphClass: 4
Flags: W
HStem: -266 139<-362.81 73.899>
AnchorPoint: "VR" -101.94 0 mark 0
AnchorPoint: "M2V" -440 0 basemark 0
AnchorPoint: "H" -6.94043 0 mark 0
LayerCount: 2
Fore
SplineSet
41 -127 m 2
 67 -127 77 -150 74 -161 c 1
 74 -242 l 1
 72 -257 60 -266 44 -266 c 2
 -335 -266 l 2
 -361 -266 -363 -236 -363 -231 c 2
 -363 -150 l 1
 -359 -123 -352 -127 -338 -127 c 2
 41 -127 l 2
322 -379 m 1
 330 -368 339 -363 349 -363 c 0
 359 -363 370 -368 382 -378 c 2
 461 -441 l 2
 484 -460 488 -480 474 -499 c 2
 424 -564 l 2
 409 -582 390 -583 366 -564 c 2
 288 -500 l 2
 264 -480 259 -460 273 -441 c 1
 322 -379 l 1
263 -122 m 1
 271 -111 279 -106 289 -106 c 0
 299 -106 311 -111 323 -121 c 2
 401 -184 l 2
 425 -203 428 -223 415 -242 c 2
 365 -307 l 2
 350 -325 330 -326 307 -307 c 2
 229 -243 l 2
 204 -223 200 -203 213 -184 c 1
 263 -122 l 1
EndSplineSet
LCarets2: 1 0 
MultipleSubs2: "meteg-tenua-stage2" hatafpatah meteg
Ligature2: "meteg-tenua-stage1" meteg hatafpatah
EndChar

StartChar: hatafqamats
Encoding: 1459 1459 129
Width: 0
VWidth: 1761
GlyphClass: 4
Flags: W
HStem: -265 139<-308.984 -168 -50 58.899>
VStem: -309 368<-264.978 -126>
AnchorPoint: "VR" -101.244 0 mark 0
AnchorPoint: "M2V" -406.494 0 basemark 0
AnchorPoint: "H" -6.24414 0 mark 0
LayerCount: 2
Fore
SplineSet
26 -126 m 2
 52 -126 62 -149 59 -160 c 1
 59 -241 l 1
 57 -256 45 -265 29 -265 c 2
 -50 -265 l 1
 -10 -436 l 2
 -7 -450 -6 -461 -22 -461 c 2
 -108 -461 l 2
 -122 -461 -125 -451 -128 -436 c 2
 -168 -265 l 1
 -281 -265 l 2
 -310 -265 -310 -235 -309 -233 c 2
 -309 -152 l 1
 -307 -142 -304 -126 -284 -126 c 2
 26 -126 l 2
268 -379 m 1
 276 -368 285 -363 295 -363 c 0
 305 -363 316 -368 328 -378 c 2
 407 -441 l 2
 430 -460 434 -480 420 -499 c 2
 370 -564 l 2
 355 -582 336 -583 312 -564 c 2
 234 -500 l 2
 210 -480 205 -460 219 -441 c 1
 268 -379 l 1
209 -122 m 1
 217 -111 225 -106 235 -106 c 0
 245 -106 257 -111 269 -121 c 2
 347 -184 l 2
 371 -203 374 -223 361 -242 c 2
 311 -307 l 2
 296 -325 276 -326 253 -307 c 2
 175 -243 l 2
 150 -223 146 -203 159 -184 c 1
 209 -122 l 1
EndSplineSet
LCarets2: 1 0 
MultipleSubs2: "meteg-tenua-stage2" hatafqamats meteg
Ligature2: "meteg-tenua-stage1" meteg hatafqamats
EndChar

StartChar: hiriq
Encoding: 1460 1460 130
Width: 0
VWidth: 1761
GlyphClass: 4
Flags: W
AnchorPoint: "J1" 285.691 0 mark 0
AnchorPoint: "M2V" -220.077 0.333008 basemark 0
AnchorPoint: "N" -0.385742 0.333008 mark 0
LayerCount: 2
Fore
SplineSet
-27 -122 m 1
 -19 -111 -10 -106 0 -106 c 0
 10 -106 19 -110 33 -121 c 2
 111 -184 l 2
 135 -203 138 -223 125 -242 c 2
 75 -307 l 2
 60 -325 40 -326 17 -307 c 2
 -61 -243 l 2
 -86 -223 -90 -203 -77 -184 c 1
 -27 -122 l 1
EndSplineSet
LCarets2: 1 0 
MultipleSubs2: "meteg-tenua-stage2" hiriq meteg
Ligature2: "meteg-tenua-stage1" meteg hiriq
EndChar

StartChar: tsere
Encoding: 1461 1461 131
Width: 0
VWidth: 1761
GlyphClass: 4
Flags: W
AnchorPoint: "M2V" -315.309 0 basemark 0
AnchorPoint: "W" -0.308594 0 mark 0
LayerCount: 2
Fore
SplineSet
99 -122 m 1
 107 -111 115 -106 125 -106 c 0
 135 -106 147 -111 159 -121 c 2
 237 -184 l 2
 261 -203 264 -223 251 -242 c 2
 201 -307 l 2
 186 -325 166 -326 143 -307 c 2
 65 -243 l 2
 40 -223 36 -203 49 -184 c 1
 99 -122 l 1
-153 -122 m 1
 -145 -111 -137 -106 -127 -106 c 0
 -117 -106 -105 -111 -93 -121 c 2
 -15 -184 l 2
 9 -203 13 -223 0 -242 c 2
 -51 -307 l 2
 -66 -325 -86 -326 -109 -307 c 2
 -187 -243 l 2
 -212 -223 -216 -203 -203 -184 c 1
 -153 -122 l 1
EndSplineSet
LCarets2: 1 0 
MultipleSubs2: "meteg-tenua-stage2" tsere meteg
Ligature2: "meteg-tenua-stage1" meteg tsere
EndChar

StartChar: segol
Encoding: 1462 1462 132
Width: 0
VWidth: 1761
GlyphClass: 4
Flags: W
AnchorPoint: "M2V" -319.309 0 basemark 0
AnchorPoint: "W" -0.308594 0 mark 0
LayerCount: 2
Fore
SplineSet
32 -379 m 1
 40 -368 49 -363 59 -363 c 0
 69 -363 80 -368 92 -378 c 2
 171 -441 l 2
 194 -460 198 -480 184 -499 c 2
 134 -564 l 2
 119 -582 100 -583 76 -564 c 2
 0 -500 l 2
 -24 -480 -31 -460 -17 -441 c 1
 32 -379 l 1
129 -122 m 1
 137 -111 145 -106 155 -106 c 0
 165 -106 177 -111 189 -121 c 2
 267 -184 l 2
 291 -203 294 -223 281 -242 c 2
 231 -307 l 2
 216 -325 196 -326 173 -307 c 2
 95 -243 l 2
 70 -223 66 -203 79 -184 c 1
 129 -122 l 1
-183 -122 m 1
 -175 -111 -167 -106 -157 -106 c 0
 -147 -106 -135 -111 -123 -121 c 2
 -45 -184 l 2
 -21 -203 -18 -223 -31 -242 c 2
 -81 -307 l 2
 -96 -325 -116 -326 -139 -307 c 2
 -217 -243 l 2
 -242 -223 -246 -203 -233 -184 c 1
 -183 -122 l 1
EndSplineSet
LCarets2: 1 0 
MultipleSubs2: "meteg-tenua-stage2" segol meteg
Ligature2: "meteg-tenua-stage1" meteg segol
EndChar

StartChar: patah
Encoding: 1463 1463 133
Width: 0
VWidth: 1761
GlyphClass: 4
Flags: W
HStem: -245 139<-166.905 200.9>
VStem: -167 368<-244.978 -106>
AnchorPoint: "M2V" -281.056 0 basemark 0
AnchorPoint: "W" 0.944336 0 mark 0
LayerCount: 2
Fore
SplineSet
168 -106 m 1
 194 -106 204 -129 201 -140 c 1
 201 -221 l 1
 199 -236 188 -245 172 -245 c 2
 -138 -245 l 2
 -168 -245 -167 -215 -167 -213 c 2
 -167 -132 l 1
 -165 -122 -161 -106 -142 -106 c 1
 168 -106 l 1
EndSplineSet
LCarets2: 1 0 
MultipleSubs2: "meteg-tenua-stage2" patah meteg
Ligature2: "meteg-tenua-stage1" meteg patah
EndChar

StartChar: qamats
Encoding: 1464 1464 134
Width: 0
VWidth: 1761
GlyphClass: 4
Flags: W
HStem: -245 139<-166.905 -25 93 200.9>
VStem: -167 368<-244.978 -106>
AnchorPoint: "M2V" -299.056 0 basemark 0
AnchorPoint: "W" 0.944336 0 mark 0
LayerCount: 2
Fore
SplineSet
168 -106 m 2
 194 -106 204 -129 201 -140 c 1
 201 -221 l 1
 199 -236 188 -245 172 -245 c 2
 93 -245 l 1
 132 -416 l 2
 135 -430 137 -441 121 -441 c 2
 35 -441 l 2
 21 -441 18 -431 14 -416 c 2
 -25 -245 l 1
 -138 -245 l 2
 -168 -245 -167 -215 -167 -213 c 2
 -167 -132 l 1
 -165 -122 -161 -106 -142 -106 c 2
 168 -106 l 2
EndSplineSet
LCarets2: 1 0 
MultipleSubs2: "meteg-tenua-stage2" qamats meteg
Ligature2: "meteg-tenua-stage1" meteg qamats
EndChar

StartChar: holam
Encoding: 1465 1465 135
Width: 0
VWidth: 1761
GlyphClass: 4
Flags: W
AnchorPoint: "Holam" -192.309 8 mark 0
LayerCount: 2
Fore
SplineSet
-384 1533 m 1
 -376 1544 -367 1549 -357 1549 c 0
 -347 1549 -336 1544 -324 1534 c 2
 -245 1471 l 2
 -222 1452 -218 1432 -232 1413 c 2
 -282 1348 l 2
 -297 1330 -317 1329 -340 1348 c 2
 -418 1412 l 2
 -442 1432 -447 1452 -433 1471 c 1
 -384 1533 l 1
EndSplineSet
EndChar

StartChar: qubuts
Encoding: 1467 1467 136
Width: 0
VWidth: 1761
GlyphClass: 4
Flags: W
AnchorPoint: "M2V" -354.309 -2 basemark 0
AnchorPoint: "W" -143.309 0 mark 0
LayerCount: 2
Fore
SplineSet
225 -458 m 1
 232 -447 241 -442 251 -442 c 0
 261 -442 272 -447 285 -457 c 2
 363 -520 l 2
 386 -539 390 -559 376 -578 c 2
 326 -643 l 2
 312 -661 292 -662 268 -643 c 2
 191 -579 l 2
 166 -559 161 -539 175 -520 c 1
 225 -458 l 1
11 -288 m 1
 19 -277 28 -272 38 -272 c 0
 48 -272 59 -277 71 -287 c 2
 150 -350 l 2
 173 -369 177 -389 163 -408 c 2
 113 -473 l 2
 98 -491 79 -492 55 -473 c 2
 -23 -409 l 2
 -47 -389 -52 -369 -38 -350 c 1
 11 -288 l 1
-200 -124 m 1
 -193 -113 -184 -108 -174 -108 c 0
 -164 -108 -153 -113 -141 -123 c 2
 -62 -186 l 2
 -39 -205 -35 -225 -49 -244 c 2
 -99 -309 l 2
 -114 -327 -133 -328 -157 -309 c 2
 -234 -245 l 2
 -259 -225 -264 -205 -250 -186 c 1
 -200 -124 l 1
EndSplineSet
LCarets2: 1 0 
MultipleSubs2: "meteg-tenua-stage2" qubuts meteg
Ligature2: "meteg-tenua-stage1" meteg qubuts
EndChar

StartChar: dagesh
Encoding: 1468 1468 137
Width: 0
VWidth: 1761
GlyphClass: 4
Flags: W
AnchorPoint: "D" 0 0 mark 0
LayerCount: 2
Fore
SplineSet
-172 616 m 1
 -165 627 -156 632 -146 632 c 0
 -136 632 -125 627 -112 617 c 2
 -34 554 l 2
 -11 535 -7 515 -21 496 c 2
 -71 431 l 2
 -85 413 -105 412 -129 431 c 2
 -206 495 l 2
 -231 515 -236 535 -222 554 c 1
 -172 616 l 1
EndSplineSet
EndChar

StartChar: meteg
Encoding: 1469 1469 138
Width: 0
VWidth: 1761
GlyphClass: 4
Flags: W
HStem: -505 395
VStem: -53 198
AnchorPoint: "M1" 0 0 mark 0
AnchorPoint: "N" 0 0 mark 0
AnchorPoint: "M2V" 100 0 mark 0
LayerCount: 2
Fore
SplineSet
-53 -184 m 1
 -51 -176 -56 -171 -36 -159 c 1
 33 -110 l 2
 36 -108 40 -106 45 -106 c 0
 62 -106 73 -123 76 -134 c 2
 145 -433 l 1
 145 -445 139 -451 128 -458 c 2
 59 -505 l 2
 47 -514 22 -505 15 -478 c 2
 -53 -184 l 1
EndSplineSet
Ligature2: "'ccmp' Remove empty near meteg" empty meteg
Ligature2: "'ccmp' Remove empty near meteg" meteg empty
LCarets2: 1 0 
EndChar

StartChar: makaf
Encoding: 1470 1470 139
Width: 691
VWidth: 1761
Flags: W
HStem: 827 193<-134.812 402.846>
VStem: -135 538
LayerCount: 2
Fore
SplineSet
-101 827 m 2
 -127 827 -135 845 -135 866 c 1
 -135 986 l 1
 -131 1002 -126 1020 -101 1020 c 2
 364 1020 l 1
 396 1016 405 996 403 978 c 1
 403 856 l 1
 400 832 379 827 364 827 c 2
 -101 827 l 2
EndSplineSet
EndChar

StartChar: rafe
Encoding: 1471 1471 140
Width: 0
VWidth: 1761
GlyphClass: 4
Flags: W
HStem: 1230 139<-481.984 -114.072>
VStem: -482 368<1230.02 1369>
AnchorPoint: "R" 0 0 mark 0
LayerCount: 2
Fore
SplineSet
-147 1369 m 2
 -121 1369 -111 1346 -114 1335 c 1
 -114 1254 l 1
 -114 1239 -128 1230 -144 1230 c 2
 -454 1230 l 2
 -483 1230 -483 1260 -482 1262 c 2
 -482 1343 l 1
 -481 1350 -478 1369 -457 1369 c 2
 -147 1369 l 2
EndSplineSet
Substitution2: "'salt' Stylistic Alternatives lookup-1" varika
EndChar

StartChar: shindot
Encoding: 1473 1473 142
Width: 0
VWidth: 1761
GlyphClass: 4
Flags: W
LayerCount: 2
Fore
SplineSet
-360 1429 m 1
 -352 1440 -344 1445 -334 1445 c 0
 -324 1445 -312 1440 -300 1430 c 2
 -222 1367 l 2
 -198 1348 -195 1328 -208 1309 c 2
 -258 1244 l 2
 -273 1226 -293 1225 -316 1244 c 2
 -394 1308 l 2
 -419 1328 -423 1348 -410 1367 c 1
 -360 1429 l 1
EndSplineSet
EndChar

StartChar: sindot
Encoding: 1474 1474 143
Width: 0
VWidth: 1761
GlyphClass: 4
Flags: W
LayerCount: 2
Fore
SplineSet
-360 1429 m 1
 -352 1440 -344 1445 -334 1445 c 0
 -324 1445 -312 1440 -300 1430 c 2
 -222 1367 l 2
 -198 1348 -195 1328 -208 1309 c 2
 -258 1244 l 2
 -273 1226 -293 1225 -316 1244 c 2
 -394 1308 l 2
 -419 1328 -423 1348 -410 1367 c 1
 -360 1429 l 1
EndSplineSet
EndChar

StartChar: sofpasuq
Encoding: 1475 1475 144
Width: 501
VWidth: 1761
Flags: W
VStem: -104 466
LayerCount: 2
Fore
SplineSet
133 328 m 1
 144 344 157 351 171 351 c 0
 185 351 202 344 219 329 c 2
 332 239 l 2
 355 221 362 203 362 188 c 0
 362 175 357 164 351 155 c 1
 280 62 l 2
 269 49 255 42 241 42 c 1
 196 62 l 1
 84 154 l 2
 67 168 51 187 51 208 c 0
 51 218 54 228 62 239 c 1
 133 328 l 1
-22 1000 m 1
 -12 1016 2 1023 16 1023 c 0
 30 1023 46 1016 64 1001 c 2
 177 911 l 2
 200 893 207 875 207 860 c 0
 207 847 202 836 196 827 c 1
 125 734 l 2
 114 721 100 714 86 714 c 1
 41 734 l 1
 -71 826 l 2
 -88 840 -104 859 -104 880 c 0
 -104 890 -101 900 -93 911 c 1
 -22 1000 l 1
EndSplineSet
EndChar

StartChar: alef
Encoding: 1488 1488 146
Width: 1353
VWidth: 1761
Flags: W
HStem: 0 16G<259 611 1292.5 1317>
VStem: 282 185<376.231 624.894> 901 156<596.205 784.208> 901 138<642.21 808.405>
AnchorPoint: "R" 880 0 basechar 0
AnchorPoint: "VR" 847 0 basechar 0
AnchorPoint: "Holam" 217 0 basechar 0
AnchorPoint: "N" 847 0 basechar 0
AnchorPoint: "W" 877 0 basechar 0
AnchorPoint: "H" 847 0 basechar 0
LayerCount: 2
Fore
SplineSet
1367 53 m 0xe0
 1367 27 1334 -5 1300 -5 c 1
 1285 -3 1282 -3 1270 5 c 0
 933 253 786 353 489 629 c 0
 484 634 471 629 469 620 c 1
 465 609 467 592 467 584 c 0
 467 564 471 543 475 526 c 0
 520 259 588 284 611 214 c 1
 655 65 l 2
 656 60 657 55 657 50 c 0
 657 23 636 0 586 0 c 2
 267 0 l 1
 251 4 235 -1 224 43 c 2
 204 118 l 2
 204 118 202 128 202 142 c 0
 202 160 205 184 221 197 c 0
 244 215 276 223 290 229 c 2
 377 256 l 1
 327 347 282 440 282 552 c 1
 282 685 334 719 334 740 c 0
 334 743 333 746 330 749 c 0
 326 752 321 756 312 764 c 2
 255 811 l 2
 240 824 224 859 221 872 c 2
 187 1018 l 2
 184 1031 182 1059 182 1061 c 0
 182 1093 207 1122 240 1122 c 0
 244 1122 264 1122 282 1103 c 1
 804 633 l 1
 830 612 853 599 864 596 c 1
 872 603 901 622 901 701 c 0xe0
 901 851 848 812 848 855 c 1
 808 990 l 2
 806 997 804 1008 805 1016 c 1
 805 1026 807 1058 870 1058 c 1
 1077 1058 l 1
 1122 1058 1139 1019 1145 1000 c 2
 1173 900 l 1
 1177 884 1179 872 1179 861 c 0
 1179 814 1143 814 1114 814 c 0
 1064 814 1039 781 1039 757 c 0xd0
 1039 744 1057 708 1057 639 c 0
 1057 536 1020 510 1020 486 c 0
 1020 474 1028 463 1051 445 c 1
 1304 238 1307 323 1326 225 c 1
 1366 61 l 2
 1367 59 1367 54 1367 53 c 0xe0
EndSplineSet
Substitution2: "'jalt' Justification Alternatives lookup -1" alef.wide
EndChar

StartChar: bet
Encoding: 1489 1489 147
Width: 1040
VWidth: 2273
Flags: W
HStem: 3 248<236.647 863.134 997.002 1104.79> 814 244<192.74 600.239>
AnchorPoint: "R" 687 0 basechar 0
AnchorPoint: "VR" 651 0 basechar 0
AnchorPoint: "Holam" 151 0 basechar 0
AnchorPoint: "H" 651 0 basechar 0
AnchorPoint: "W" 681 0 basechar 0
AnchorPoint: "N" 651 0 basechar 0
LayerCount: 2
Fore
SplineSet
1143 48 m 1
 1135 8 1123 3 1076 3 c 2
 311 3 l 2
 294 3 248 3 234 52 c 2
 198 187 l 2
 196 193 195 199 195 205 c 0
 195 229 210 251 256 251 c 2
 826 251 l 1
 846 251 l 1
 860 251 866 254 863 261 c 0
 704 606 698 814 441 814 c 2
 240 814 l 1
 163 814 129 860 122 890 c 2
 72 1108 l 2
 70 1115 70 1121 70 1126 c 0
 70 1161 97 1178 123 1178 c 0
 134 1178 144 1176 152 1170 c 0
 182 1150 186 1090 223 1058 c 1
 443 1058 l 2
 795 1058 852 860 997 280 c 0
 1005 252 1004 257 1006 251 c 1
 1007 251 1009 251 1013 251 c 2
 1046 251 l 1
 1073 251 1095 248 1108 196 c 2
 1140 66 l 2
 1142 61 1143 55 1143 48 c 1
EndSplineSet
EndChar

StartChar: gimel
Encoding: 1490 1490 148
Width: 841
VWidth: 2273
Flags: W
HStem: 0 248<229.647 427.699> 810 244<197.833 396.312>
AnchorPoint: "R" 630 0 basechar 0
AnchorPoint: "VR" 548 0 basechar 0
AnchorPoint: "Holam" 148 0 basechar 0
AnchorPoint: "H" 554.926 0 basechar 0
AnchorPoint: "W" 588 0 basechar 0
AnchorPoint: "N" 608 0 basechar 0
LayerCount: 2
Fore
SplineSet
859 -13 m 0
 790 -13 657 90 600 325 c 1
 529 26 526 0 304 0 c 0
 298 0 295 0 289 0 c 0
 274 0 238 1 227 50 c 1
 191 184 l 2
 189 190 188 196 188 202 c 0
 188 226 203 248 249 248 c 2
 299 248 l 2
 463 248 492 363 510 515 c 1
 410 763 415 810 257 810 c 2
 243 810 l 1
 189 810 143 836 136 868 c 2
 77 1105 l 2
 75 1111 75 1117 75 1123 c 0
 75 1157 102 1176 128 1176 c 0
 138 1176 149 1173 157 1167 c 0
 187 1147 191 1086 228 1054 c 1
 272 1054 l 2
 473 1054 526 1054 581 854 c 0
 767 184 968 291 968 198 c 0
 968 188 965 180 962 173 c 1
 890 94 916 -13 859 -13 c 0
EndSplineSet
EndChar

StartChar: dalet
Encoding: 1491 1491 149
Width: 1009
VWidth: 2273
Flags: W
HStem: -21 21G<752 771.5> 811 247<57.4844 540.113 742.297 798.837>
AnchorPoint: "R" 650 0 basechar 0
AnchorPoint: "VR" 738 0 basechar 0
AnchorPoint: "Holam" 8 0 basechar 0
AnchorPoint: "H" 738 0 basechar 0
AnchorPoint: "W" 788 0 basechar 0
AnchorPoint: "N" 778 0 basechar 0
LayerCount: 2
Fore
SplineSet
-15 1175 m 0
 44 1175 53 1085 85 1058 c 1
 744 1058 l 1
 770 1058 790 1052 803 1000 c 2
 833 886 l 2
 835 879 836 874 836 869 c 1
 830 842 844 811 774 811 c 0
 743 811 742 774 742 753 c 0
 742 550 906 312 906 172 c 0
 906 114 866 9 830 -4 c 0
 827 -6 825 -6 815 -9 c 2
 787 -18 l 2
 783 -19 775 -21 768 -21 c 0
 736 -21 730 10 728 20 c 2
 543 758 l 1
 533 792 522 811 452 811 c 2
 96 811 l 2
 42 811 -4 838 -11 870 c 2
 -67 1105 l 2
 -69 1111 -69 1117 -69 1123 c 0
 -69 1158 -42 1175 -15 1175 c 0
EndSplineSet
Substitution2: "'jalt' Justification Alternatives lookup -1" daled.wide
EndChar

StartChar: he
Encoding: 1492 1492 150
Width: 1276
VWidth: 2273
Flags: W
HStem: -18 21G<296 337 1064.5 1099> 813 245<192.047 854.371>
VStem: 259 216<43.0793 383.996>
AnchorPoint: "R" 850 0 basechar 0
AnchorPoint: "VR" 759 0 basechar 0
AnchorPoint: "Holam" 139 0 basechar 0
AnchorPoint: "H" 759 0 basechar 0
AnchorPoint: "W" 749 0 basechar 0
AnchorPoint: "N" 719 0 basechar 0
LayerCount: 2
Fore
SplineSet
475 175 m 0
 475 22 352 -18 322 -18 c 0
 270 -18 259 30 259 67 c 0
 259 400 194 535 194 609 c 0
 194 685 289 703 296 703 c 1
 308 701 338 701 351 649 c 2
 375 551 l 2
 396 468 475 306 475 175 c 0
121 1175 m 0
 180 1175 187 1087 219 1058 c 1
 1012 1058 l 1
 1038 1058 1059 1052 1072 1000 c 2
 1102 886 l 2
 1104 880 1105 874 1105 869 c 0
 1105 829 1067 825 1062 825 c 1
 1055 818 1049 790 1049 766 c 0
 1049 569 1219 296 1219 172 c 0
 1219 126 1187 3 1128 -9 c 1
 1099 -18 l 2
 1096 -19 1088 -18 1080 -18 c 0
 1049 -18 1043 11 1041 20 c 2
 857 759 l 2
 848 793 837 813 769 813 c 2
 231 813 l 2
 176 813 131 839 123 871 c 2
 70 1105 l 2
 68 1112 68 1118 68 1123 c 0
 68 1158 95 1175 121 1175 c 0
EndSplineSet
Substitution2: "'jalt' Justification Alternatives lookup -1" he.wide
EndChar

StartChar: vav
Encoding: 1493 1493 151
Width: 667
VWidth: 2273
Flags: W
AnchorPoint: "D" 294 0 basechar 0
AnchorPoint: "Holam_Haser_on_Vav" 132 0 basechar 0
AnchorPoint: "VR" 502 0 basechar 0
AnchorPoint: "Holam" 352 0 basechar 0
AnchorPoint: "N" 572 0 basechar 0
AnchorPoint: "W" 572 0 basechar 0
AnchorPoint: "H" 502 0 basechar 0
LayerCount: 2
Fore
SplineSet
8 897 m 1
 -43 1135 l 2
 -44 1140 -45 1145 -45 1150 c 0
 -45 1179 -21 1190 5 1190 c 0
 16 1190 27 1188 37 1185 c 1
 76 1164 72 1101 110 1062 c 1
 456 1008 479 923 506 798 c 1
 545 631 l 2
 582 469 685 256 685 151 c 0
 685 80 639 9 630 0 c 1
 624 -4 621 -5 595 -13 c 2
 566 -22 l 1
 557 -25 552 -24 548 -24 c 0
 517 -24 509 -9 507 0 c 2
 304 744 l 1
 294 767 250 785 196 793 c 1
 109 818 l 1
 71 831 17 842 8 897 c 1
EndSplineSet
EndChar

StartChar: zain
Encoding: 1494 1494 152
Width: 692
VWidth: 2273
Flags: W
VStem: 7 577
AnchorPoint: "VR" 441.444 0 basechar 0
AnchorPoint: "Holam" 91.4443 0 basechar 0
AnchorPoint: "N" 481.444 0 basechar 0
AnchorPoint: "W" 481.444 0 basechar 0
AnchorPoint: "H" 440.521 4 basechar 0
LayerCount: 2
Fore
SplineSet
424 739 m 1
 408 739 405 728 405 723 c 2
 405 706 l 2
 405 534 584 311 584 152 c 0
 584 81 538 9 529 0 c 1
 522 -5 514 -6 494 -12 c 2
 465 -21 l 2
 461 -21 453 -23 446 -23 c 0
 382 -23 408 34 375 178 c 0
 338 333 291 430 260 561 c 1
 213 742 252 753 183 776 c 1
 157 784 l 1
 115 798 65 808 56 863 c 1
 7 1120 l 2
 7 1122 7 1129 7 1133 c 0
 7 1164 30 1174 56 1174 c 0
 67 1174 78 1172 87 1169 c 1
 126 1148 119 1108 173 1058 c 1
 435 1012 l 2
 482 1004 498 993 504 972 c 1
 533 823 l 1
 536 814 538 801 538 786 c 0
 538 754 529 718 501 718 c 0
 492 718 442 739 424 739 c 1
EndSplineSet
EndChar

StartChar: het
Encoding: 1495 1495 153
Width: 1345
VWidth: 2273
Flags: W
HStem: 813 245<401.396 932.611>
AnchorPoint: "VR" 818 0 basechar 0
AnchorPoint: "Holam" 148 0 basechar 0
AnchorPoint: "N" 818 0 basechar 0
AnchorPoint: "W" 848 0 basechar 0
AnchorPoint: "H" 818 0 basechar 0
LayerCount: 2
Fore
SplineSet
113 1176 m 0
 177 1176 170 1113 244 1058 c 1
 1098 1058 l 1
 1115 1058 1133 1054 1143 1001 c 2
 1170 865 l 2
 1173 851 1174 841 1174 832 c 0
 1174 782 1130 815 1130 719 c 0
 1130 528 1298 304 1298 172 c 0
 1298 107 1259 20 1230 0 c 0
 1207 -17 1167 -21 1160 -21 c 0
 1128 -21 1121 -5 1120 0 c 2
 936 757 l 1
 926 793 915 813 848 813 c 2
 454 813 l 2
 414 813 396 782 396 719 c 0
 396 575 521 322 521 213 c 0
 521 133 472 58 434 12 c 0
 422 -2 409 -8 390 -13 c 1
 357 -17 l 2
 350 -18 345 -18 342 -18 c 0
 307 -18 302 8 299 24 c 0
 256 203 238 770 162 780 c 0
 158 781 123 803 114 837 c 1
 63 1105 l 2
 62 1111 61 1117 61 1122 c 0
 61 1159 88 1176 113 1176 c 0
EndSplineSet
EndChar

StartChar: tet
Encoding: 1496 1496 154
Width: 1236
VWidth: 2273
Flags: W
HStem: -25 251<616.6 892.106> 738 284<371.488 478.308> 813 245<712.227 907.283>
VStem: 61 418<814.672 1018.27> 61 126<1068.95 1158.43> 1013 178<293.044 633.522>
AnchorPoint: "VR" 818 0 basechar 0
AnchorPoint: "Holam" 148 0 basechar 0
AnchorPoint: "N" 758 0 basechar 0
AnchorPoint: "W" 788 0 basechar 0
AnchorPoint: "H" 818 0 basechar 0
LayerCount: 2
Fore
SplineSet
627 678 m 1xb4
 614 680 597 676 573 716 c 1
 573 722 l 2
 573 861 578 1058 792 1058 c 0
 1046 1058 1119 767 1164 578 c 0
 1180 512 1191 428 1191 345 c 0
 1191 156 1128 87 1098 73 c 0
 1039 45 1049 45 683 -16 c 0
 661 -19 633 -25 611 -25 c 0
 554 -25 525 8 465 80 c 1
 341 233 204 440 204 776 c 1
 197 784 177 799 165 802 c 2
 113 813 l 2
 68 822 61 829 61 866 c 2xb4
 61 1089 l 1
 68 1121 95 1171 148 1171 c 0
 170 1171 185 1155 187 1138 c 1xac
 192 1119 207 1088 231 1068 c 1
 417 1022 l 1
 461 1013 479 1007 479 965 c 0
 479 908 479 851 479 794 c 0
 479 765 476 738 445 738 c 0xd4
 417 738 423 749 369 749 c 1
 439 485 511 352 664 226 c 1
 808 226 889 246 999 292 c 1
 1012 314 1013 353 1013 368 c 2
 1013 375 l 2
 1013 474 971 645 948 708 c 1
 923 768 872 813 796 813 c 0
 720 813 697 750 668 693 c 1
 653 683 642 678 627 678 c 1xb4
EndSplineSet
EndChar

StartChar: yod
Encoding: 1497 1497 155
Width: 726
VWidth: 2273
Flags: W
VStem: 369 190<469.442 814>
AnchorPoint: "VR" 459 0 basechar 0
AnchorPoint: "Holam" 79 0 basechar 0
AnchorPoint: "N" 519 0 basechar 0
AnchorPoint: "W" 519 0 basechar 0
AnchorPoint: "H" 459 0 basechar 0
LayerCount: 2
Fore
SplineSet
400 391 m 0
 331 391 329 410 329 430 c 0
 329 479 369 538 369 636 c 0
 369 706 333 739 245 753 c 1
 169 767 l 1
 64 791 67 845 66 847 c 2
 19 1115 l 2
 18 1119 18 1124 18 1127 c 0
 18 1158 42 1168 67 1168 c 0
 78 1168 89 1166 99 1163 c 1
 140 1141 113 1093 215 1058 c 1
 360 1023 l 2
 523 983 559 881 559 747 c 0
 559 656 546 535 517 473 c 1
 476 404 431 391 400 391 c 0
EndSplineSet
EndChar

StartChar: finalkaf
Encoding: 1498 1498 156
Width: 966
VWidth: 2273
Flags: W
HStem: 811 247<56.3551 583.256>
AnchorPoint: "VR" 240 0 basechar 0
AnchorPoint: "Holam" 12 0 basechar 0
AnchorPoint: "N" 493.154 -5 basechar 0
AnchorPoint: "W" 392 0 basechar 0
AnchorPoint: "H" 313.154 0 basechar 0
LayerCount: 2
Fore
SplineSet
4 1171 m 0
 60 1171 30 1116 86 1058 c 1
 457 1058 l 2
 691 1058 788 937 822 811 c 1
 838 743 870 533 882 481 c 0
 962 150 1103 -121 1103 -245 c 0
 1103 -308 1067 -399 1035 -421 c 0
 1024 -428 1012 -434 1006 -436 c 2
 977 -446 l 2
 973 -447 965 -449 957 -449 c 0
 925 -449 919 -418 917 -408 c 2
 664 597 l 2
 619 773 622 811 292 811 c 2
 56 811 l 2
 22 811 -17 834 -17 873 c 1
 -63 1107 l 1
 -63 1109 l 2
 -63 1146 -26 1171 4 1171 c 0
EndSplineSet
EndChar

StartChar: kaf
Encoding: 1499 1499 157
Width: 1087
VWidth: 2273
Flags: W
HStem: 0 248<242.647 929.99> 811 247<182.949 670.624>
VStem: 930 194<224 372.326>
AnchorPoint: "R" 750 0 basechar 0
AnchorPoint: "VR" 639 0 basechar 0
AnchorPoint: "Holam" 139 0 basechar 0
AnchorPoint: "N" 639 0 basechar 0
AnchorPoint: "W" 639 0 basechar 0
AnchorPoint: "H" 639 0 basechar 0
LayerCount: 2
Fore
SplineSet
849 248 m 2
 916 248 930 256 930 285 c 0
 930 296 928 308 922 335 c 2
 902 417 l 1
 855 601 777 811 453 811 c 2
 228 811 l 2
 173 811 128 837 120 869 c 2
 68 1105 l 2
 67 1111 66 1117 66 1122 c 0
 66 1158 93 1175 119 1175 c 0
 186 1175 157 1095 219 1066 c 0
 223 1064 251 1058 253 1058 c 1
 589 1058 l 1
 899 1058 990 619 1118 273 c 1
 1123 254 1124 239 1124 224 c 0
 1124 113 1042 0 951 0 c 2
 302 0 l 2
 287 0 251 1 240 50 c 1
 204 184 l 2
 202 190 201 196 201 202 c 0
 201 226 216 248 262 248 c 2
 849 248 l 2
EndSplineSet
Substitution2: "'jalt' Justification Alternatives lookup -1" khaf.wide
EndChar

StartChar: lamed
Encoding: 1500 1500 158
Width: 1092
VWidth: 2273
Flags: W
HStem: -5 314<376.012 488.657> 812 244<140.409 726.391>
VStem: -64 281<1394.42 1604.09> -64 243<1530.75 1637.02> -64 142<1135.52 1385.2> 758 176<542.452 784.718>
AnchorPoint: "J1" 110 0 basechar 0
AnchorPoint: "VR" 596 0 basechar 0
AnchorPoint: "Holam" -94 0 basechar 0
AnchorPoint: "N" 456 0 basechar 0
AnchorPoint: "W" 406 0 basechar 0
AnchorPoint: "H" 496 0 basechar 0
LayerCount: 2
Fore
SplineSet
-64 1561 m 0xe4
 -64 1565 -64 1569 -64 1573 c 0xe4
 -64 1611 -62 1639 7 1639 c 2
 116 1639 l 2
 138 1639 166 1639 179 1584 c 1xd4
 214 1454 l 2
 216 1447 217 1440 217 1434 c 0xe4
 217 1409 199 1392 152 1392 c 2
 119 1392 l 2
 101 1392 88 1390 87 1386 c 0
 80 1369 78 1350 78 1326 c 0xcc
 78 1280 87 1196 143 1092 c 1
 162 1061 176 1056 201 1056 c 1
 705 1056 l 1
 861 1032 934 919 934 769 c 0
 934 513 732 147 435 7 c 0
 417 -2 404 -5 392 -5 c 0
 358 -5 350 30 342 59 c 1
 314 199 l 1
 314 203 l 1
 324 247 363 258 469 309 c 1
 683 422 758 557 758 674 c 0
 758 735 733 812 631 812 c 2
 132 812 l 2
 34 812 20 857 8 908 c 0
 -48 1139 -64 1331 -64 1561 c 0xe4
EndSplineSet
Substitution2: "'jalt' Justification Alternatives lookup -1" lamed.wide
EndChar

StartChar: finalmem
Encoding: 1501 1501 159
Width: 1310
VWidth: 2273
Flags: W
HStem: 0 248<476.855 1114> 812 246<352.957 914.059>
AnchorPoint: "VR" 847 0 basechar 0
AnchorPoint: "Holam" 117 0 basechar 0
AnchorPoint: "N" 817 0 basechar 0
AnchorPoint: "W" 837 0 basechar 0
AnchorPoint: "H" 847 0 basechar 0
LayerCount: 2
Fore
SplineSet
365 812 m 2
 356 812 352 796 353 792 c 0
 355 781 393 597 410 531 c 0
 477 262 485 248 531 248 c 1
 1063 248 l 1
 1116 248 1114 255 1114 264 c 0
 1114 273 1112 288 1107 310 c 2
 1102 334 l 1
 1072 460 1017 617 1011 633 c 0
 943 804 875 812 621 812 c 2
 365 812 l 2
835 1058 m 1
 1068 1058 1116 913 1161 759 c 1
 1295 224 l 2
 1308 169 1321 143 1321 116 c 0
 1321 74 1273 0 1181 0 c 2
 434 0 l 2
 394 0 357 1 340 66 c 0
 323 129 207 464 207 720 c 2
 207 778 l 1
 186 784 l 1
 156 794 93 845 84 884 c 2
 34 1105 l 2
 32 1112 32 1118 32 1123 c 0
 32 1158 58 1176 84 1176 c 0
 148 1176 136 1088 199 1058 c 0
 203 1056 260 1058 262 1058 c 1
 835 1058 l 1
EndSplineSet
Substitution2: "'jalt' Justification Alternatives lookup -1" finalmem.wide
EndChar

StartChar: mem
Encoding: 1502 1502 160
Width: 1383
VWidth: 2273
Flags: W
HStem: 0 248<773.984 1214.64> 813 245<664.887 936.373>
VStem: 302 217<6.85444 460.412> 328 191<2.03094 673.521> 1215 230<126.5 331.36>
AnchorPoint: "VR" 878 0 basechar 0
AnchorPoint: "Holam" 98 0 basechar 0
AnchorPoint: "N" 878 0 basechar 0
AnchorPoint: "W" 908 0 basechar 0
AnchorPoint: "H" 878 0 basechar 0
LayerCount: 2
Fore
SplineSet
72 1175 m 0xd8
 136 1175 127 1083 189 1053 c 1
 284 1000 422 1014 449 910 c 0
 459 870 456 772 462 769 c 1
 497 803 567 876 607 958 c 1
 624 1007 608 1039 657 1052 c 0
 680 1058 719 1058 779 1058 c 0
 1013 1058 1089 1004 1239 698 c 0
 1302 568 1391 358 1431 256 c 1
 1436 233 1445 198 1445 170 c 0
 1445 83 1410 0 1281 0 c 2
 839 0 l 2
 822 0 783 0 771 50 c 1
 732 184 l 2
 730 190 729 196 729 202 c 0
 729 226 745 248 795 248 c 2
 1160 248 l 2
 1202 248 1215 274 1215 300 c 0
 1215 315 1211 330 1206 340 c 2
 1114 546 l 2
 1063 660 941 813 819 813 c 0
 795 813 768 811 738 807 c 1
 685 788 656 761 655 760 c 0
 528 660 519 623 519 509 c 2xd8
 519 102 l 2
 519 97 521 77 521 71 c 0
 521 24 511 19 511 17 c 1
 503 5 500 0 455 0 c 2
 415 0 l 2
 388 0 302 0 302 50 c 2
 302 72 l 2xe8
 302 215 328 179 328 474 c 0
 328 696 283 737 251 750 c 2
 161 786 l 2
 120 803 78 820 69 855 c 1
 21 1105 l 2
 20 1111 19 1116 19 1122 c 0
 19 1157 46 1175 72 1175 c 0xd8
EndSplineSet
EndChar

StartChar: finalnun
Encoding: 1503 1503 161
Width: 653
VWidth: 2273
Flags: W
HStem: 809 249<86.8326 258.021>
AnchorPoint: "VR" -75 0 basechar 0
AnchorPoint: "Holam" 47 0 basechar 0
AnchorPoint: "N" 227 0 basechar 0
AnchorPoint: "W" 87 0 basechar 0
AnchorPoint: "H" 27 0 basechar 0
LayerCount: 2
Fore
SplineSet
15 1175 m 0
 85 1175 76 1058 133 1058 c 2
 337 1058 l 2
 355 1058 419 1049 443 973 c 1
 476 877 l 1
 482 853 483 849 483 842 c 2
 483 838 l 1
 477 827 473 821 473 792 c 0
 473 762 481 708 510 618 c 1
 598 240 743 45 743 -207 c 0
 743 -369 662 -449 629 -449 c 1
 608 -443 597 -449 579 -368 c 1
 465 88 385 297 259 761 c 0
 252 786 247 809 173 809 c 2
 132 809 l 2
 78 809 32 837 25 869 c 1
 -37 1104 l 2
 -38 1106 -38 1112 -38 1114 c 0
 -38 1159 -11 1175 15 1175 c 0
EndSplineSet
EndChar

StartChar: nun
Encoding: 1504 1504 162
Width: 849
VWidth: 2273
Flags: W
HStem: 0 248<229.014 626.542> 810 248<215.594 431.003>
VStem: 187 671<32.643 228.167>
AnchorPoint: "VR" 530 0 basechar 0
AnchorPoint: "Holam" 180 0 basechar 0
AnchorPoint: "N" 540 0 basechar 0
AnchorPoint: "W" 540 0 basechar 0
AnchorPoint: "H" 530 0 basechar 0
LayerCount: 2
Fore
SplineSet
146 1175 m 0
 214 1175 207 1058 264 1058 c 2
 457 1058 l 2
 575 1058 612 959 638 854 c 2
 656 780 l 2
 752 384 858 112 858 71 c 0
 858 25 830 0 714 0 c 2
 289 0 l 2
 273 0 237 1 226 50 c 1
 190 184 l 2
 189 188 188 194 187 203 c 1
 187 220 191 248 248 248 c 2
 624 248 l 2
 628 248 634 259 632 267 c 0
 626 307 470 779 388 810 c 1
 256 810 l 2
 202 810 158 837 150 869 c 2
 95 1105 l 2
 93 1112 93 1118 93 1123 c 0
 93 1158 120 1175 146 1175 c 0
EndSplineSet
EndChar

StartChar: samekh
Encoding: 1505 1505 163
Width: 1251
VWidth: 2273
Flags: W
HStem: -34 282<580.338 962.694> 813 245<336.99 886.423>
VStem: 1037 172<311.234 612.314>
AnchorPoint: "VR" 817 0 basechar 0
AnchorPoint: "Holam" 117 0 basechar 0
AnchorPoint: "N" 797 0 basechar 0
AnchorPoint: "W" 797 0 basechar 0
AnchorPoint: "H" 817 0 basechar 0
LayerCount: 2
Fore
SplineSet
341 727 m 0
 457 261 605 248 748 248 c 2
 778 248 l 2
 875 248 1037 280 1037 409 c 0
 1037 445 1028 471 1019 520 c 1
 956 788 875 813 626 813 c 1
 619 813 l 2
 573 813 354 795 336 770 c 1
 333 763 339 735 341 727 c 0
110 1175 m 0
 162 1175 193 1058 236 1058 c 1
 817 1058 l 1
 918 1058 1050 969 1088 857 c 1
 1176 661 1209 441 1209 329 c 0
 1209 141 1134 -34 822 -34 c 0
 391 -34 264 294 182 710 c 1
 150 812 95 768 84 820 c 1
 40 1090 l 1
 40 1090 38 1110 38 1125 c 0
 38 1155 85 1175 110 1175 c 0
EndSplineSet
EndChar

StartChar: ayin
Encoding: 1506 1506 164
Width: 1269
VWidth: 2273
Flags: W
VStem: 877 157<431.679 789.949>
AnchorPoint: "D" 793 125 basechar 0
AnchorPoint: "VR" 651 0 basechar 0
AnchorPoint: "Holam" 131 0 basechar 0
AnchorPoint: "N" 671 0 basechar 0
AnchorPoint: "W" 601 0 basechar 0
AnchorPoint: "H" 651 0 basechar 0
LayerCount: 2
Fore
SplineSet
865 790 m 2
 837 795 l 2
 804 801 771 807 762 846 c 1
 719 992 l 2
 717 998 716 1005 716 1011 c 0
 716 1035 731 1058 781 1058 c 2
 984 1058 l 2
 1004 1058 1035 1055 1048 1001 c 2
 1083 858 l 2
 1084 855 1084 852 1084 849 c 0
 1084 824 1055 810 1033 797 c 1
 1033 703 1034 637 1034 561 c 0
 1034 258 972 90 387 -31 c 0
 350 -39 306 -48 280 -48 c 0
 231 -48 227 -6 227 3 c 0
 227 14 231 35 231 57 c 2
 231 125 l 2
 231 212 289 202 396 218 c 1
 589 245 l 1
 416 365 268 583 214 793 c 1
 179 804 l 2
 154 812 104 826 95 866 c 2
 42 1105 l 2
 41 1111 40 1117 40 1122 c 0
 40 1158 67 1176 93 1176 c 0
 154 1176 149 1084 199 1061 c 0
 202 1059 205 1058 207 1058 c 2
 347 1058 l 2
 361 1058 403 1058 419 1001 c 1
 456 859 l 2
 457 856 459 847 459 845 c 0
 459 815 426 808 424 807 c 2
 387 798 l 1
 458 564 651 399 779 363 c 1
 862 434 877 546 877 656 c 2
 877 776 l 2
 877 782 871 789 865 790 c 2
EndSplineSet
Substitution2: "'salt' Stylistic Alternatives lookup-1" ayin.alt
Substitution2: "Alternate Ayin Substitution Table" ayin.alt
EndChar

StartChar: finalpe
Encoding: 1507 1507 165
Width: 1025
VWidth: 2273
Flags: W
HStem: 409 230<297.444 417.726> 809 249<269.004 630.397>
VStem: 95 174<645.151 808.998> 99 89<1059.53 1172.88> 985 163<-396.625 -204.464>
AnchorPoint: "VR" 374 0 basechar 0
AnchorPoint: "Holam" 174 0 basechar 0
AnchorPoint: "H" 403.77 1 basechar 0
AnchorPoint: "W" 523.77 1 basechar 0
AnchorPoint: "N" 653.77 1 basechar 0
LayerCount: 2
Fore
SplineSet
339 639 m 0xe8
 383 639 410 624 437 559 c 2
 458 510 l 2
 465 494 472 468 472 456 c 0
 472 426 447 409 392 409 c 2
 284 409 l 2
 206 409 172 442 111 689 c 0
 98 741 95 792 95 846 c 0xe8
 95 898 99 923 99 977 c 2
 99 1109 l 2
 99 1160 132 1174 154 1174 c 1
 158 1173 176 1176 188 1151 c 0xd8
 203 1119 205 1058 242 1058 c 2
 440 1058 l 2
 707 1058 821 946 846 855 c 1
 870 809 901 701 919 618 c 1
 1003 268 1148 -37 1148 -214 c 0
 1148 -377 1070 -457 1037 -457 c 1
 1019 -453 1004 -460 985 -375 c 1
 873 84 850 110 715 632 c 0
 680 771 632 809 298 809 c 0
 275 809 269 806 269 793 c 0
 269 760 282 754 302 663 c 0
 303 661 298 639 339 639 c 0xe8
EndSplineSet
EndChar

StartChar: pe
Encoding: 1508 1508 166
Width: 1120
VWidth: 2273
Flags: W
HStem: 0 248<278.313 957.968> 410 229<343.004 511.628> 810 248<312.004 676.002>
VStem: 153 159<663.952 809.998> 159 87<1061.42 1172.95> 958 189<151.5 383.812>
AnchorPoint: "R" 771 0 basechar 0
AnchorPoint: "VR" 709 0 basechar 0
AnchorPoint: "Holam" 239 0 basechar 0
AnchorPoint: "H" 709 0 basechar 0
AnchorPoint: "W" 709 0 basechar 0
AnchorPoint: "N" 699 0 basechar 0
LayerCount: 2
Fore
SplineSet
564 456 m 0xf4
 564 426 548 410 462 410 c 2
 328 410 l 2
 247 410 217 457 165 674 c 0
 159 698 153 814 153 845 c 0xf4
 153 898 159 923 159 977 c 2
 159 1109 l 2
 159 1161 191 1174 213 1174 c 1
 217 1173 234 1176 246 1151 c 0xec
 261 1120 266 1058 302 1058 c 2
 537 1058 l 2
 797 1058 888 1000 987 716 c 2
 1130 306 l 1
 1133 291 1147 266 1147 211 c 0
 1147 92 1059 0 983 0 c 2
 339 0 l 2
 323 0 287 1 276 50 c 1
 240 184 l 2
 238 190 237 197 237 203 c 0
 237 226 251 248 298 248 c 2
 763 248 l 2
 914 248 958 258 958 282 c 0
 958 300 941 338 923 373 c 1
 918 394 782 651 758 682 c 1
 705 755 701 810 341 810 c 0
 318 810 312 807 312 794 c 0
 312 767 323 736 343 683 c 1
 356 645 377 639 406 639 c 0
 418 639 432 640 447 640 c 0
 501 640 505 610 526 565 c 1
 545 517 l 1
 553 500 564 471 564 456 c 0xf4
EndSplineSet
EndChar

StartChar: finaltsadi
Encoding: 1509 1509 167
Width: 1257
VWidth: 2273
Flags: W
AnchorPoint: "M1" 380 0 basechar 0
AnchorPoint: "Holam" 77 0 basechar 0
AnchorPoint: "H" 1237 0 basechar 0
AnchorPoint: "W" 1107 0 basechar 0
AnchorPoint: "N" 957 0 basechar 0
LayerCount: 2
Fore
SplineSet
616 286 m 1
 672 85 828 -192 828 -301 c 0
 828 -371 793 -414 768 -421 c 2
 732 -432 l 2
 717 -436 702 -440 688 -440 c 0
 614 -440 684 -378 262 705 c 1
 215 810 133 777 72 804 c 0
 42 818 36 839 34 850 c 2
 -25 1103 l 2
 -27 1110 -27 1116 -27 1122 c 0
 -27 1158 0 1175 26 1175 c 0
 40 1175 54 1170 63 1159 c 0
 75 1145 114 1058 141 1058 c 0
 207 1058 272 1058 338 1058 c 0
 354 1058 388 1055 401 1004 c 2
 440 850 l 1
 440 847 l 1
 440 847 441 844 441 842 c 2
 441 834 l 1
 394 779 l 1
 530 491 l 1
 606 560 779 678 779 797 c 1
 764 801 746 813 739 842 c 2
 699 990 l 2
 697 997 696 1004 696 1011 c 0
 696 1038 714 1058 759 1058 c 2
 960 1058 l 2
 978 1058 1022 1051 1034 998 c 1
 1066 870 l 1
 1066 867 l 2
 1066 865 1067 863 1067 861 c 0
 1067 811 942 781 933 770 c 0
 925 761 921 741 910 712 c 0
 843 541 738 435 616 286 c 1
EndSplineSet
EndChar

StartChar: tsadi
Encoding: 1510 1510 168
Width: 1186
VWidth: 2273
Flags: W
HStem: 0 248<252.654 851.765>
VStem: 212 934<32.0592 244.616>
AnchorPoint: "VR" 681 0 basechar 0
AnchorPoint: "Holam" 131 0 basechar 0
AnchorPoint: "H" 681 0 basechar 0
AnchorPoint: "W" 681 0 basechar 0
AnchorPoint: "N" 681 0 basechar 0
LayerCount: 2
Fore
SplineSet
516 843 m 1
 513 815 515 822 468 788 c 1
 733 558 l 1
 748 600 770 636 770 694 c 0
 770 848 691 746 665 835 c 2
 621 990 l 2
 619 996 618 1002 618 1009 c 0
 618 1034 633 1058 683 1058 c 1
 912 1058 l 1
 930 1058 972 1051 984 998 c 2
 1022 839 l 1
 1022 836 l 1
 1022 820 1016 789 951 773 c 1
 926 726 941 572 877 435 c 1
 1070 274 1146 267 1146 178 c 0
 1146 149 1143 100 1143 100 c 1
 1136 43 1077 0 997 0 c 2
 314 0 l 2
 299 0 263 1 250 49 c 2
 212 184 l 2
 211 188 212 195 212 202 c 0
 212 204 212 205 212 207 c 0
 212 224 214 248 266 248 c 2
 775 248 l 2
 798 248 818 247 833 247 c 0
 841 247 847 247 852 248 c 1
 838 262 799 289 767 312 c 1
 569 463 642 389 268 736 c 0
 255 749 218 784 202 789 c 1
 131 789 118 821 110 851 c 2
 47 1109 l 2
 45 1116 44 1122 44 1128 c 0
 44 1162 72 1180 98 1180 c 0
 156 1180 147 1108 200 1065 c 0
 204 1062 216 1058 217 1058 c 2
 414 1058 l 2
 430 1058 462 1053 475 1003 c 2
 516 843 l 1
EndSplineSet
EndChar

StartChar: kof
Encoding: 1511 1511 169
Width: 1196
VWidth: 2273
Flags: W
HStem: 812 246<164.243 850.646>
VStem: 406 197<-391.301 -281.5> 921 154<411.404 737.607>
AnchorPoint: "M1" 120 0 basechar 0
AnchorPoint: "Holam" 122 -1 basechar 0
AnchorPoint: "H" 1032 0 basechar 0
AnchorPoint: "W" 872 0 basechar 0
AnchorPoint: "N" 732 0 basechar 0
LayerCount: 2
Fore
SplineSet
93 1176 m 0
 160 1176 150 1058 220 1058 c 2
 785 1058 l 2
 955 1058 1024 918 1040 854 c 0
 1063 756 1075 662 1075 574 c 0
 1075 353 1000 144 823 -5 c 1
 805 -17 784 -24 764 -24 c 0
 725 -24 688 3 675 72 c 1
 653 165 l 1
 653 168 l 2
 653 236 675 239 732 268 c 0
 840 324 921 450 921 578 c 0
 921 600 919 624 914 645 c 0
 882 777 822 812 671 812 c 2
 205 812 l 2
 151 812 105 839 98 871 c 2
 42 1105 l 2
 40 1111 40 1117 40 1123 c 0
 40 1157 67 1176 93 1176 c 0
471 -425 m 0
 434 -425 423 -409 406 -340 c 2
 220 419 l 2
 210 462 208 477 208 491 c 0
 208 517 216 537 226 562 c 2
 279 684 l 2
 286 701 305 707 320 707 c 1
 391 692 335 706 419 377 c 0
 483 127 603 -173 603 -278 c 0
 603 -424 475 -425 471 -425 c 0
EndSplineSet
EndChar

StartChar: resh
Encoding: 1512 1512 170
Width: 978
VWidth: 2273
Flags: W
HStem: 811 247<43.7399 620.851>
AnchorPoint: "VR" 741 0 basechar 0
AnchorPoint: "Holam" 1 0 basechar 0
AnchorPoint: "H" 741.23 -1 basechar 0
AnchorPoint: "W" 911.23 -1 basechar 0
AnchorPoint: "N" 911.23 -1 basechar 0
LayerCount: 2
Fore
SplineSet
995 191 m 0
 995 166 972 26 949 0 c 0
 936 -16 912 -32 890 -32 c 0
 876 -32 863 -25 855 -7 c 1
 684 617 l 1
 640 785 651 811 317 811 c 2
 93 811 l 2
 39 811 -6 838 -14 870 c 2
 -77 1105 l 2
 -79 1111 -79 1116 -79 1121 c 0
 -79 1152 -53 1176 -26 1176 c 0
 36 1176 23 1089 83 1061 c 0
 87 1059 91 1058 92 1058 c 1
 465 1058 l 1
 779 1058 795 835 855 671 c 1
 961 339 l 1
 969 301 995 242 995 191 c 0
EndSplineSet
Substitution2: "'jalt' Justification Alternatives lookup -1" resh.wide
EndChar

StartChar: shin
Encoding: 1513 1513 171
Width: 1561
VWidth: 2273
Flags: W
HStem: -19 266<809 983.347> 796 262<358.007 406.943 536.372 642.243 1015.3 1138.42>
VStem: 644 165<258 790.789> 1142 232<597 849.5> 1142 150<421.357 791.377>
AnchorPoint: "VR" 867 0 basechar 0
AnchorPoint: "Holam" 97 0 basechar 0
AnchorPoint: "H" 867 0 basechar 0
AnchorPoint: "W" 817 0 basechar 0
AnchorPoint: "N" 817 0 basechar 0
LayerCount: 2
Fore
SplineSet
52 1175 m 0xe8
 115 1175 109 1080 171 1058 c 1
 347 1058 l 2
 357 1058 400 1057 411 1001 c 2
 438 858 l 2
 440 851 440 846 440 840 c 0
 440 798 392 796 374 796 c 0
 367 796 358 778 358 762 c 0
 358 754 359 749 360 746 c 0
 431 567 469 395 644 258 c 1
 644 726 l 2
 644 783 622 796 616 796 c 2
 601 796 l 2
 575 796 546 803 535 844 c 1
 504 992 l 2
 503 999 502 1005 502 1010 c 0
 502 1042 523 1058 566 1058 c 2
 835 1058 l 2
 857 1058 885 1054 896 999 c 2
 925 856 l 2
 927 849 928 843 928 838 c 0
 928 779 809 825 809 722 c 2
 809 248 l 1
 811 248 816 247 821 247 c 0
 832 247 843 248 856 250 c 0
 1106 280 1142 480 1142 714 c 0
 1142 754 1133 796 1096 796 c 2
 1081 796 l 2
 1067 796 1027 796 1014 844 c 1
 981 992 l 2
 979 999 979 1005 979 1011 c 0
 979 1042 1001 1058 1042 1058 c 2
 1277 1058 l 2
 1296 1058 1327 1054 1339 1002 c 2
 1372 858 l 2
 1373 854 1374 851 1374 848 c 0xf0
 1374 815 1318 801 1311 792 c 0
 1300 779 1292 747 1292 684 c 0
 1292 622 1295 588 1295 527 c 0
 1295 237 1248 -19 695 -19 c 2
 660 -19 l 2
 604 -19 537 -14 494 64 c 0
 230 540 213 779 139 796 c 0
 96 805 58 825 50 855 c 1
 0 1104 l 2
 0 1104 0 1116 0 1121 c 0
 0 1158 26 1175 52 1175 c 0xe8
EndSplineSet
EndChar

StartChar: tav
Encoding: 1514 1514 172
Width: 1302
VWidth: 2273
Flags: W
HStem: 0 199<203.965 370.995> 812 246<415.276 922.834>
VStem: 260 151<651 768.869> 371 216<90.5 334.016>
AnchorPoint: "R" 850 0 basechar 0
AnchorPoint: "VR" 823 0 basechar 0
AnchorPoint: "Holam" 223 0 basechar 0
AnchorPoint: "H" 823.462 -2 basechar 0
AnchorPoint: "W" 843.462 -2 basechar 0
AnchorPoint: "N" 823.462 -2 basechar 0
LayerCount: 2
Fore
SplineSet
359 291 m 1xd0
 268 589 l 1
 262 613 260 633 260 651 c 0
 260 714 287 746 293 770 c 1
 225 799 205 825 202 842 c 2
 156 1105 l 2
 155 1110 153 1116 153 1123 c 0
 153 1163 177 1177 202 1177 c 0
 272 1177 253 1091 315 1062 c 0
 319 1060 322 1058 324 1058 c 1
 792 1058 l 1
 1089 1058 1117 835 1178 670 c 1
 1322 205 l 1
 1328 192 1331 175 1331 156 c 0
 1331 77 1281 -35 1230 -35 c 0
 1192 -35 1173 18 1157 89 c 1
 1136 177 1030 489 1004 595 c 0
 961 766 957 812 629 812 c 2
 455 812 l 2
 420 812 411 761 411 727 c 0xe0
 411 709 415 691 419 672 c 1
 563 280 l 1
 568 261 587 216 587 151 c 0
 587 30 507 0 433 0 c 2
 271 0 l 2
 241 0 193 3 193 67 c 0
 193 162 196 180 312 199 c 0
 364 208 371 208 371 226 c 0
 371 238 366 261 359 291 c 1xd0
EndSplineSet
Substitution2: "'jalt' Justification Alternatives lookup -1" tav.wide
EndChar

StartChar: newshekel
Encoding: 8362 8362 186
Width: 1575
VWidth: 1761
Flags: W
HStem: -49 297<629.848 875.255> 812 246<124.585 624.944> 830 228<905.859 1022.39 1181.35 1222.35>
VStem: 713 163<326.883 400.544> 1026 232<598.5 885.5> 1026 148<435.253 828.627>
LayerCount: 2
Fore
SplineSet
813 774 m 0xb0
 813 569 876 565 876 477 c 0
 876 416 854 365 830 325 c 0
 802 281 794 297 753 287 c 1
 721 287 715 319 713 328 c 2
 630 748 l 2
 623 782 613 812 550 812 c 2
 182 812 l 2xd0
 145 812 123 805 123 741 c 0
 123 597 241 297 241 188 c 0
 241 108 196 33 160 -13 c 0
 149 -27 136 -33 117 -38 c 1
 87 -38 l 2
 84 -38 77 -39 71 -39 c 0
 39 -39 36 -9 34 0 c 0
 -14 208 -11 779 -91 830 c 0
 -97 834 -156 923 -164 958 c 2
 -202 1127 l 2
 -204 1133 -205 1139 -205 1145 c 0
 -205 1181 -178 1201 -151 1201 c 0
 -141 1201 -131 1198 -122 1192 c 0
 -88 1168 -101 1109 -36 1058 c 1
 768 1058 l 1
 770 1058 772 1058 774 1058 c 0
 781 1058 787 1058 793 1058 c 0
 808 1058 818 1054 828 1019 c 2
 853 927 l 1
 856 912 858 900 858 891 c 0
 858 839 813 874 813 774 c 0xb0
561 405 m 0
 561 376 631 248 717 248 c 0
 960 248 1026 452 1026 745 c 0
 1026 791 1017 830 967 830 c 0
 954 830 916 830 904 880 c 2
 872 1005 l 2
 871 1009 870 1014 870 1018 c 0
 870 1041 888 1058 937 1058 c 2
 1167 1058 l 1
 1172 1058 1176 1058 1180 1058 c 0
 1203 1058 1211 1055 1222 1015 c 2
 1256 894 l 2
 1257 891 1258 887 1258 884 c 0xb8
 1258 865 1240 848 1204 833 c 0
 1180 823 1174 752 1174 678 c 0xb4
 1174 617 1178 554 1178 520 c 0
 1178 214 1054 -49 744 -49 c 2
 713 -49 l 2
 660 -49 596 -44 555 38 c 0
 449 249 508 140 424 322 c 0
 355 471 334 421 274 459 c 1
 263 472 254 491 250 513 c 1
 218 695 l 1
 218 702 226 731 255 731 c 0
 282 731 296 684 345 684 c 2
 546 684 l 1
 592 679 603 655 610 625 c 2
 640 489 l 1
 640 408 561 477 561 405 c 0
EndSplineSet
EndChar

StartChar: Euro
Encoding: 8364 8364 187
Width: 929
Flags: W
HStem: -25 109<427.381 670.905> 374 113<-21 33 276 515> 563 111<-65 0 225 471> 966 112<239.535 493.22>
VStem: -5 204<674 922.048> 687 111<224.465 287>
LayerCount: 2
Fore
SplineSet
68 374 m 1
 -21 374 l 1
 -47 487 l 1
 33 487 l 1
 15 563 l 1
 -65 563 l 1
 -91 674 l 1
 0 674 l 1
 0 699 -5 723 -5 745 c 0
 -5 1022 164 1078 308 1078 c 0
 418 1078 494 1060 595 1033 c 1
 649 796 l 1
 553 796 l 1
 511 910 l 1
 458 949 398 966 350 966 c 0
 278 966 199 941 199 767 c 0
 199 740 201 709 205 674 c 1
 471 674 l 1
 497 563 l 1
 225 563 l 1
 243 487 l 1
 515 487 l 1
 541 374 l 1
 276 374 l 1
 339 191 430 84 550 84 c 0
 605 84 655 102 687 147 c 1
 687 287 l 1
 798 287 l 1
 856 34 l 1
 789 6 684 -25 563 -25 c 0
 327 -25 158 138 68 374 c 1
EndSplineSet
EndChar

StartChar: dottedcircle
Encoding: 9676 9676 188
Width: 1276
VWidth: 2273
Flags: W
HStem: 36 189<539.625 676.375> 96 189<301.463 439.375 748.625 885.126> 258 190<103.284 238.932 874.331 1009.98> 481 190<-8.42099 127.088 882.912 1018.42> 704 190<0.284386 136.202 771.331 907.411> 867 189<123.463 261.375 570.625 707.126> 927 191<333.418 470.623>
VStem: -38 193<510.25 643.781 741.931 872.156> 74 194<287.636 418.75> 96 195<894.625 1026.89> 274 195<123.5 255.75> 305 195<954.219 1087.57> 510 196<65.1127 195.75> 541 195<896.574 1026.89> 719 195<125.113 255.75> 742 194<733.25 864.761> 848 191<284.459 418.75 513.967 648.014>
CounterMasks: 1 38
AnchorPoint: "Holam" 100 3 basechar 0
LayerCount: 2
Fore
SplineSet
934 799 m 0x1801
 936 792 936 784 936 778 c 0
 936 735 906 704 861 704 c 0
 808 704 757 746 745 799 c 0
 743 806 742 814 742 820 c 0
 742 862 773 894 818 894 c 0
 870 894 922 851 934 799 c 0x1801
912 190 m 0
 914 183 914 176 914 169 c 0
 914 127 884 96 839 96 c 0
 786 96 734 138 722 190 c 0
 720 198 719 205 719 212 c 0
 719 254 750 285 795 285 c 0x5002
 847 285 900 243 912 190 c 0
266 353 m 0
 268 346 268 339 268 332 c 0
 268 290 238 258 192 258 c 0
 140 258 89 301 77 353 c 0
 75 361 74 368 74 376 c 0
 74 417 105 448 149 448 c 0x3080
 202 448 253 406 266 353 c 0
288 962 m 0
 290 954 291 947 291 940 c 0
 291 898 260 867 215 867 c 0
 163 867 108 909 96 962 c 0
 94 969 96 976 96 983 c 0
 96 1025 126 1056 171 1056 c 0x1440
 224 1056 276 1014 288 962 c 0
163 799 m 0
 165 792 165 785 165 778 c 0
 165 735 135 704 89 704 c 0
 37 704 -14 746 -26 799 c 0
 -28 806 -29 814 -29 820 c 0
 -29 862 1 894 46 894 c 0x18
 99 894 151 851 163 799 c 0
466 190 m 0
 468 183 469 175 469 169 c 0
 469 127 438 96 393 96 c 0
 341 96 286 138 274 190 c 0
 272 197 274 205 274 211 c 0
 274 254 304 285 349 285 c 0x5020
 402 285 454 243 466 190 c 0
1037 353 m 0
 1039 346 1039 339 1039 332 c 0
 1039 290 1009 258 964 258 c 0
 911 258 860 301 848 353 c 0
 846 361 845 368 845 376 c 0
 845 417 876 448 921 448 c 0x300080
 973 448 1024 406 1037 353 c 0
734 962 m 0
 736 955 736 946 736 940 c 0
 736 897 706 867 661 867 c 0
 608 867 556 909 544 962 c 0
 542 969 541 977 541 983 c 0
 541 1025 572 1056 617 1056 c 0x1404
 669 1056 722 1014 734 962 c 0
703 130 m 0
 705 123 706 115 706 109 c 0
 706 67 675 36 630 36 c 0
 577 36 525 78 513 130 c 0
 511 138 510 145 510 152 c 0
 510 194 541 225 586 225 c 0x9008
 639 225 691 183 703 130 c 0
1045 576 m 0
 1047 568 1048 561 1048 554 c 0
 1048 512 1018 481 973 481 c 0
 900 481 855 546 855 600 c 0
 855 639 877 671 929 671 c 0
 981 671 1033 629 1045 576 c 0
497 1022 m 0
 499 1014 500 1007 500 1000 c 0
 500 958 469 927 424 927 c 0
 351 927 305 992 305 1047 c 0
 305 1085 328 1118 380 1118 c 0x1210
 434 1118 485 1074 497 1022 c 0
37 671 m 0
 110 671 155 606 155 552 c 0
 155 513 133 481 81 481 c 0
 29 481 -23 523 -35 576 c 0
 -37 584 -38 591 -38 598 c 0x11
 -38 640 -8 671 37 671 c 0
EndSplineSet
EndChar

StartChar: ayin.alt
Encoding: 64288 64288 194
Width: 1269
VWidth: 2273
Flags: W
VStem: 877 157<431.679 789.949>
AnchorPoint: "D" 793 125 basechar 0
AnchorPoint: "VR" 651 0 basechar 0
AnchorPoint: "Holam" 131 0 basechar 0
AnchorPoint: "N" 671 0 basechar 0
AnchorPoint: "W" 601 0 basechar 0
AnchorPoint: "H" 651 0 basechar 0
LayerCount: 2
Fore
SplineSet
865 790 m 2
 837 795 l 2
 804 801 771 807 762 846 c 1
 719 992 l 2
 717 998 716 1005 716 1011 c 0
 716 1035 731 1058 781 1058 c 2
 984 1058 l 2
 1004 1058 1035 1055 1048 1001 c 2
 1083 858 l 2
 1084 855 1084 852 1084 849 c 0
 1084 824 1055 810 1033 797 c 1
 1033 703 1034 637 1034 561 c 0
 1034 258 972 90 387 -31 c 0
 350 -39 306 -48 280 -48 c 0
 231 -48 227 -6 227 3 c 0
 227 14 231 35 231 57 c 2
 231 125 l 2
 231 212 289 202 396 218 c 1
 589 245 l 1
 416 365 268 583 214 793 c 1
 179 804 l 2
 154 812 104 826 95 866 c 2
 42 1105 l 2
 41 1111 40 1117 40 1122 c 0
 40 1158 67 1176 93 1176 c 0
 154 1176 149 1084 199 1061 c 0
 202 1059 205 1058 207 1058 c 2
 347 1058 l 2
 361 1058 403 1058 419 1001 c 1
 456 859 l 2
 457 856 459 847 459 845 c 0
 459 815 426 808 424 807 c 2
 387 798 l 1
 458 564 651 399 779 363 c 1
 862 434 877 546 877 656 c 2
 877 776 l 2
 877 782 871 789 865 790 c 2
EndSplineSet
EndChar

StartChar: alef.wide
Encoding: 64289 64289 195
Width: 2001
VWidth: 1761
Flags: W
HStem: 0 21G<259 611>
VStem: 282 185<376.231 624.894> 1582 156<489.258 761.208> 1582 138<619.21 785.405>
AnchorPoint: "D" 1161.57 -451 basechar 0
AnchorPoint: "VR" 1089.28 3 basechar 0
AnchorPoint: "Holam" 293.444 0 basechar 0
AnchorPoint: "N" 1093.28 3 basechar 0
AnchorPoint: "W" 1089.28 3 basechar 0
AnchorPoint: "H" 1089.28 3 basechar 0
LayerCount: 2
Fore
SplineSet
2015 14 m 0xe0
 2015 -12 1982 -44 1948 -44 c 1
 1933 -42 1931 -39 1918 -34 c 0
 1485 144 786 353 489 629 c 0
 484 634 471 629 469 620 c 1
 465 609 467 592 467 584 c 0
 467 564 471 543 475 526 c 0
 520 259 588 284 611 214 c 1
 655 65 l 2
 656 60 657 55 657 50 c 0
 657 23 636 0 586 0 c 2
 267 0 l 1
 251 4 235 -1 224 43 c 2
 204 118 l 2
 204 118 202 128 202 142 c 0
 202 160 205 184 221 197 c 0
 244 215 276 223 290 229 c 2
 377 256 l 1
 327 347 282 440 282 552 c 1
 282 685 334 719 334 740 c 0
 334 743 333 746 330 749 c 0
 326 752 321 756 312 764 c 2
 255 811 l 2
 240 824 224 859 221 872 c 2
 187 1018 l 2
 184 1031 182 1059 182 1061 c 0
 182 1093 207 1122 240 1122 c 0
 244 1122 279 1129 297 1110 c 1
 564 754 963 528 1380 406 c 1
 1419 393 1471 399 1482 396 c 1
 1530 432 1582 599 1582 678 c 1xe0
 1582 828 1529 789 1529 832 c 1
 1489 967 l 2
 1487 974 1485 985 1486 993 c 1
 1486 1003 1488 1035 1551 1035 c 1
 1758 1035 l 1
 1803 1035 1820 996 1826 977 c 2
 1854 877 l 1
 1858 861 1860 849 1860 838 c 0
 1860 791 1824 791 1795 791 c 0
 1745 791 1720 758 1720 734 c 0xd0
 1720 721 1738 685 1738 616 c 0
 1738 483 1656 369 1656 345 c 0
 1656 333 1670 321 1687 304 c 1
 1965 207 1955 284 1974 186 c 1
 2014 22 l 2
 2015 20 2015 15 2015 14 c 0xe0
EndSplineSet
EndChar

StartChar: daled.wide
Encoding: 64290 64290 196
Width: 1700
VWidth: 2273
Flags: W
HStem: 811 247<57.4844 1231.11 1433.3 1489.84>
AnchorPoint: "D" 800.621 0 basechar 0
AnchorPoint: "VR" 1370.57 1 basechar 0
AnchorPoint: "Holam" 20.6211 0 basechar 0
AnchorPoint: "H" 1370.57 1 basechar 0
AnchorPoint: "W" 1515.57 1 basechar 0
AnchorPoint: "N" 1531.57 1 basechar 0
LayerCount: 2
Fore
SplineSet
-15 1175 m 0
 44 1175 53 1085 85 1058 c 1
 1435 1058 l 1
 1461 1058 1481 1052 1494 1000 c 2
 1524 886 l 2
 1526 880 1527 874 1527 870 c 1
 1521 842 1535 811 1465 811 c 0
 1434 811 1433 774 1433 754 c 0
 1433 550 1597 312 1597 172 c 0
 1597 114 1558 7 1522 -6 c 0
 1519 -8 1517 -8 1507 -11 c 2
 1479 -20 l 2
 1475 -21 1467 -23 1460 -23 c 0
 1428 -23 1422 8 1420 18 c 2
 1234 758 l 1
 1224 792 1213 811 1143 811 c 2
 96 811 l 2
 42 811 -4 838 -11 870 c 2
 -67 1105 l 2
 -69 1111 -69 1117 -69 1123 c 0
 -69 1158 -42 1175 -15 1175 c 0
EndSplineSet
EndChar

StartChar: he.wide
Encoding: 64291 64291 197
Width: 2064
VWidth: 2273
Flags: W
HStem: 817 245<192.047 1642.37>
VStem: 259 216<43.0793 383.996>
AnchorPoint: "D" 1117.62 -3 basechar 0
AnchorPoint: "VR" 1117.39 -2 basechar 0
AnchorPoint: "Holam" 220.621 0 basechar 0
AnchorPoint: "H" 1117.39 -2 basechar 0
AnchorPoint: "W" 1114.39 -2 basechar 0
AnchorPoint: "N" 1114.39 1 basechar 0
LayerCount: 2
Fore
SplineSet
475 175 m 0
 475 22 352 -18 322 -18 c 0
 270 -18 259 30 259 67 c 0
 259 400 194 535 194 609 c 0
 194 685 289 703 296 703 c 1
 308 701 338 701 351 649 c 2
 375 551 l 2
 396 468 475 306 475 175 c 0
121 1175 m 0
 180 1175 187 1091 219 1062 c 1
 1800 1062 l 1
 1826 1062 1847 1056 1860 1004 c 2
 1890 890 l 2
 1892 884 1893 878 1893 873 c 0
 1893 833 1855 829 1850 829 c 1
 1843 822 1837 794 1837 770 c 0
 1837 573 2007 300 2007 176 c 0
 2007 130 1975 7 1916 -5 c 1
 1887 -13 l 2
 1884 -14 1876 -16 1868 -16 c 0
 1837 -16 1831 15 1829 24 c 2
 1645 763 l 2
 1636 797 1625 817 1557 817 c 2
 231 817 l 2
 176 817 131 839 123 871 c 2
 70 1105 l 2
 68 1112 68 1118 68 1123 c 0
 68 1158 95 1175 121 1175 c 0
EndSplineSet
EndChar

StartChar: khaf.wide
Encoding: 64292 64292 198
Width: 1828
VWidth: 2273
Flags: W
HStem: 0 248<242.647 1670.99> 811 247<182.949 1411.62>
VStem: 1671 194<224 372.326>
AnchorPoint: "D" 963.588 0 basechar 0
AnchorPoint: "VR" 1033.93 0 basechar 0
AnchorPoint: "Holam" 183.588 0 basechar 0
AnchorPoint: "N" 1054.93 0 basechar 0
AnchorPoint: "W" 999.933 0 basechar 0
AnchorPoint: "H" 1033.93 0 basechar 0
LayerCount: 2
Fore
SplineSet
1590 248 m 2
 1657 248 1671 256 1671 285 c 0
 1671 296 1669 308 1663 335 c 2
 1643 417 l 1
 1596 601 1518 811 1194 811 c 2
 228 811 l 2
 173 811 128 837 120 869 c 2
 68 1105 l 2
 67 1111 66 1117 66 1122 c 0
 66 1158 93 1175 119 1175 c 0
 186 1175 157 1095 219 1066 c 0
 223 1064 251 1058 253 1058 c 1
 1330 1058 l 1
 1640 1058 1731 619 1859 273 c 1
 1864 254 1865 239 1865 224 c 0
 1865 113 1783 0 1692 0 c 2
 302 0 l 2
 287 0 251 1 240 50 c 1
 204 184 l 2
 202 190 201 196 201 202 c 0
 201 226 216 248 262 248 c 2
 1590 248 l 2
EndSplineSet
EndChar

StartChar: lamed.wide
Encoding: 64293 64293 199
Width: 1886
VWidth: 2273
Flags: W
HStem: -6 314<1170.01 1282.66> 812 243<140.409 1520.39>
VStem: -64 281<1394.42 1604.09> -64 243<1530.75 1637.02> -64 142<1135.52 1385.2> 1552 176<541.452 784.07>
AnchorPoint: "D" 783 -3 basechar 0
AnchorPoint: "J1" -35 -3 basechar 0
AnchorPoint: "VR" 1288.08 1 basechar 0
AnchorPoint: "Holam" -89.0869 97 basechar 0
AnchorPoint: "N" 1139.08 1 basechar 0
AnchorPoint: "W" 1202.08 1 basechar 0
AnchorPoint: "H" 1202.08 1 basechar 0
LayerCount: 2
Fore
SplineSet
-64 1561 m 0xe4
 -64 1565 -64 1569 -64 1573 c 0xe4
 -64 1611 -62 1639 7 1639 c 2
 116 1639 l 2
 138 1639 166 1639 179 1584 c 1xd4
 214 1454 l 2
 216 1447 217 1440 217 1434 c 0xe4
 217 1409 199 1392 152 1392 c 2
 119 1392 l 2
 101 1392 88 1390 87 1386 c 0
 80 1369 78 1350 78 1326 c 0xcc
 78 1280 87 1196 143 1092 c 1
 162 1061 176 1055 201 1055 c 1
 1499 1055 l 1
 1655 1031 1728 918 1728 768 c 0
 1728 512 1526 146 1229 6 c 0
 1211 -3 1198 -6 1186 -6 c 0
 1152 -6 1144 29 1136 58 c 1
 1108 198 l 1
 1108 202 l 1
 1118 246 1157 257 1263 308 c 1
 1477 421 1552 556 1552 673 c 0
 1552 734 1527 812 1425 812 c 2
 132 812 l 2
 34 812 20 857 8 908 c 0
 -48 1139 -64 1331 -64 1561 c 0xe4
EndSplineSet
EndChar

StartChar: finalmem.wide
Encoding: 64294 64294 200
Width: 1998
VWidth: 2273
Flags: W
HStem: 0 248<476.855 1802> 812 246<352.957 1602.06>
AnchorPoint: "D" 1161.62 0 basechar 0
AnchorPoint: "VR" 1123.64 0 basechar 0
AnchorPoint: "Holam" 195.621 0 basechar 0
AnchorPoint: "N" 1085.64 0 basechar 0
AnchorPoint: "W" 1121.64 0 basechar 0
AnchorPoint: "H" 1123.64 0 basechar 0
LayerCount: 2
Fore
SplineSet
365 812 m 2
 356 812 352 796 353 792 c 0
 355 781 393 597 410 531 c 0
 477 262 485 248 531 248 c 1
 1751 248 l 1
 1804 248 1802 255 1802 264 c 0
 1802 273 1800 288 1795 310 c 2
 1790 334 l 1
 1760 460 1705 617 1699 633 c 0
 1631 804 1563 812 1309 812 c 2
 365 812 l 2
1523 1058 m 1
 1756 1058 1804 913 1849 759 c 1
 1983 224 l 2
 1996 169 2009 143 2009 116 c 0
 2009 74 1961 0 1869 0 c 2
 434 0 l 2
 394 0 357 1 340 66 c 0
 323 129 207 464 207 720 c 2
 207 778 l 1
 186 784 l 1
 156 794 93 845 84 884 c 2
 34 1105 l 2
 32 1112 32 1118 32 1123 c 0
 32 1158 58 1176 84 1176 c 0
 148 1176 136 1088 199 1058 c 0
 203 1056 260 1058 262 1058 c 1
 1523 1058 l 1
EndSplineSet
EndChar

StartChar: resh.wide
Encoding: 64295 64295 201
Width: 1779
VWidth: 2273
Flags: W
HStem: 819 239<42.2878 1423.32>
AnchorPoint: "D" 936.621 0 basechar 0
AnchorPoint: "VR" 1637.08 -2 basechar 0
AnchorPoint: "Holam" 56.6211 0 basechar 0
AnchorPoint: "H" 1637.31 -3 basechar 0
AnchorPoint: "W" 1737.31 -3 basechar 0
AnchorPoint: "N" 1749.31 -3 basechar 0
LayerCount: 2
Fore
SplineSet
1796 191 m 0
 1796 166 1773 26 1750 0 c 0
 1737 -16 1713 -32 1691 -32 c 0
 1677 -32 1664 -25 1656 -7 c 1
 1485 617 l 1
 1441 785 1468 819 1134 819 c 2
 93 819 l 1
 39 819 -6 837 -14 869 c 2
 -77 1104 l 2
 -79 1110 -79 1115 -79 1120 c 0
 -79 1151 -53 1175 -26 1175 c 0
 36 1175 23 1088 83 1060 c 0
 87 1058 91 1058 92 1058 c 1
 1266 1058 l 1
 1580 1058 1596 835 1656 671 c 1
 1762 339 l 1
 1770 301 1796 242 1796 191 c 0
EndSplineSet
EndChar

StartChar: tav.wide
Encoding: 64296 64296 202
Width: 1989
VWidth: 2273
Flags: W
HStem: 0 199<203.965 370.995> 817 246<416.133 1609.83>
VStem: 260 151<651 768.869> 371 216<90.5 334.016>
AnchorPoint: "D" 1159.62 0 basechar 0
AnchorPoint: "VR" 1165.39 1 basechar 0
AnchorPoint: "Holam" 294.621 0 basechar 0
AnchorPoint: "H" 1165.85 -1 basechar 0
AnchorPoint: "W" 1152.85 -1 basechar 0
AnchorPoint: "N" 1125.85 -1 basechar 0
LayerCount: 2
Fore
SplineSet
359 291 m 1xd0
 268 589 l 1
 262 613 260 633 260 651 c 0
 260 714 287 746 293 770 c 1
 225 799 205 825 202 842 c 2
 156 1105 l 2
 155 1110 153 1116 153 1123 c 0
 153 1163 177 1177 202 1177 c 0
 272 1177 253 1091 315 1062 c 0
 319 1060 322 1063 324 1063 c 1
 1479 1063 l 1
 1776 1063 1804 840 1865 675 c 1
 2009 210 l 1
 2015 197 2018 180 2018 161 c 0
 2018 82 1968 -30 1917 -30 c 0
 1879 -30 1860 23 1844 94 c 1
 1823 182 1717 494 1691 600 c 0
 1648 771 1644 817 1316 817 c 2
 455 817 l 2
 420 817 411 761 411 727 c 0xe0
 411 709 415 691 419 672 c 1
 563 280 l 1
 568 261 587 216 587 151 c 0
 587 30 507 0 433 0 c 2
 271 0 l 2
 241 0 193 3 193 67 c 0
 193 162 196 180 312 199 c 0
 364 208 371 208 371 226 c 0
 371 238 366 261 359 291 c 1xd0
EndSplineSet
EndChar

StartChar: hebrewplussign
Encoding: 64297 64297 203
Width: 1052
VWidth: 2273
Flags: W
HStem: 418 229<-3 249 518 811> 920 20G<181 454.642>
LayerCount: 2
Fore
SplineSet
-3 418 m 1
 -55 647 l 1
 249 647 l 1
 181 940 l 1
 450 940 l 1
 518 647 l 1
 811 647 l 1
 863 418 l 1
 -3 418 l 1
EndSplineSet
EndChar

StartChar: aleflamed
Encoding: 64335 64335 241
Width: 1279
VWidth: 2273
Flags: W
HStem: 0 21G<1232 1253.5>
VStem: -85 144<1142.57 1394> -82 243<1531.23 1639.02> 869 122<596.95 742.284> 869 105<614.077 752.63>
AnchorPoint: "VR" 778 0 basechar 0
AnchorPoint: "Holam" -115 0 basechar 0
AnchorPoint: "H" 778 0 basechar 0
AnchorPoint: "W" 778 0 basechar 0
AnchorPoint: "N" 778 0 basechar 0
LayerCount: 2
Fore
SplineSet
101 1394 m 2xa0
 64 1394 59 1379 59 1356 c 0
 59 1347 60 1338 60 1328 c 0
 60 1282 79 1226 112 1112 c 0
 124 1073 184 1009 238 976 c 1
 403 827 591 717 769 581 c 1
 771 579 774 578 778 578 c 0
 796 578 827 596 836 603 c 1
 837 608 869 611 869 680 c 1xd0
 869 719 838 741 802 773 c 1
 791 782 762 795 751 852 c 1
 716 991 l 1
 716 992 716 993 716 994 c 0
 716 1010 750 1058 807 1058 c 2
 1011 1058 l 2
 1077 1058 1070 1034 1076 1006 c 2
 1113 826 l 1
 1113 793 1082 787 1048 787 c 0
 999 787 974 755 974 732 c 0x88
 974 720 991 677 991 611 c 0
 991 521 956 497 956 473 c 0
 956 462 965 449 990 429 c 0
 1238 228 1240 312 1264 218 c 2
 1306 52 l 1
 1306 27 1270 0 1237 0 c 0
 1227 0 1217 0 1208 7 c 0
 881 250 555 413 253 679 c 0
 143 776 -3 829 -50 1022 c 0
 -79 1144 -85 1219 -85 1305 c 0xd0
 -85 1369 -82 1439 -82 1539 c 2
 -82 1575 l 2
 -82 1613 -80 1641 -11 1641 c 2
 98 1641 l 2
 120 1641 147 1641 161 1586 c 2
 200 1437 l 1
 200 1409 178 1394 134 1394 c 2
 101 1394 l 2xa0
EndSplineSet
LCarets2: 2 0 0 
Ligature2: "'ccmp' Alef Lamed" alef uni0000 lamed
Ligature2: "'ccmp' Alef Lamed" alef zerojoin lamed
EndChar

StartChar: nunhapukha
Encoding: 1478 1478 243
Width: 747
VWidth: 2273
Flags: W
HStem: 3 248<505.003 799.79> 813 246<403.371 514.901>
LayerCount: 2
Fore
SplineSet
838 48 m 1
 830 8 818 3 771 3 c 2
 486 3 l 2
 366 3 319 14 284 217 c 1
 284 219 l 2
 284 388 234 542 184 751 c 1
 173 794 l 2
 170 809 98 827 88 869 c 2
 32 1108 l 2
 30 1115 30 1121 30 1126 c 0
 30 1161 57 1178 83 1178 c 0
 149 1178 128 1092 190 1063 c 0
 194 1061 198 1059 200 1059 c 2
 416 1059 l 2
 418 1059 449 1058 453 1058 c 0
 471 1058 503 1054 518 1006 c 2
 559 873 l 2
 564 856 552 835 538 827 c 1
 526 818 509 813 483 813 c 2
 412 813 l 1
 406 803 403 777 403 754 c 0
 403 663 431 498 499 320 c 1
 505 296 l 1
 516 257 514 251 606 251 c 2
 741 251 l 2
 768 251 790 248 803 196 c 2
 835 66 l 2
 837 61 838 55 838 48 c 1
EndSplineSet
EndChar

StartChar: qamatsqatan
Encoding: 1479 1479 244
Width: 0
VWidth: 1761
GlyphClass: 4
Flags: W
HStem: -245 139<-149.905 -25 93 182.9>
VStem: -150 333<-244.978 -106.017>
AnchorPoint: "M2V" -260.426 -90 basemark 0
AnchorPoint: "W" 1.02539 -1 mark 0
LayerCount: 2
Fore
SplineSet
150 -106 m 2
 176 -106 186 -129 183 -140 c 1
 183 -221 l 1
 181 -236 170 -245 154 -245 c 2
 93 -245 l 1
 155 -480 l 2
 158 -494 152 -505 136 -505 c 2
 50 -505 l 2
 36 -505 23 -495 20 -480 c 2
 -25 -245 l 1
 -121 -245 l 2
 -151 -245 -150 -215 -150 -213 c 2
 -150 -132 l 1
 -148 -122 -144 -106 -125 -106 c 2
 150 -106 l 2
EndSplineSet
LCarets2: 1 0 
MultipleSubs2: "meteg-tenua-stage2" qamatsqatan meteg
Ligature2: "meteg-tenua-stage1" meteg qamatsqatan
EndChar

StartChar: uni0000
Encoding: 0 0 247
Width: 1472
VWidth: 0
Flags: W
HStem: 0 162<322 1050> 225 203<496.23 651.979> 1016 127<249.597 547.984> 1215 156<61 804>
VStem: 221 94<878.355 963.491> 466 216<254.608 398.392> 480 103<481.982 506> 594 172<740.477 971.471>
LayerCount: 2
Fore
SplineSet
766 827 m 0xfb
 766 670 626 641 583 631 c 1
 583 506 l 1
 569 491 557 480 538 480 c 0
 524 480 506 487 480 506 c 1
 398 708 l 1
 539 737 l 2
 574 744 594 763 594 812 c 0
 594 828 592 852 583 890 c 0
 556 1001 519 1016 411 1016 c 0
 370 1016 338 1008 315 996 c 1
 315 905 l 1
 302 888 287 878 271 878 c 0
 256 878 239 887 221 905 c 1
 171 1109 l 1
 196 1115 l 2
 251 1129 312 1143 394 1143 c 0
 708 1143 766 938 766 827 c 0xfb
555 428 m 0
 634 428 682 362 682 305 c 0xfc
 682 262 655 225 594 225 c 0xf9
 514 225 466 291 466 348 c 0xfc
 466 391 493 428 555 428 c 0
804 1215 m 1
 61 1215 l 1
 322 162 l 1
 1050 162 l 1
 804 1215 l 1
-115 1371 m 1
 926 1371 l 1
 1242 0 l 1
 204 0 l 1
 -115 1371 l 1
EndSplineSet
EndChar

StartChar: .notdef
Encoding: 65536 -1 249
Width: 1472
VWidth: 0
Flags: W
HStem: 0 162<322 1050> 225 203<496.23 651.979> 1016 127<249.597 547.984> 1215 156<61 804>
VStem: 221 94<878.355 963.491> 466 216<254.608 398.392> 480 103<481.982 506> 594 172<740.477 971.471>
LayerCount: 2
Fore
SplineSet
766 827 m 0xfb
 766 670 626 641 583 631 c 1
 583 506 l 1
 569 491 557 480 538 480 c 0
 524 480 506 487 480 506 c 1
 398 708 l 1
 539 737 l 2
 574 744 594 763 594 812 c 0
 594 828 592 852 583 890 c 0
 556 1001 519 1016 411 1016 c 0
 370 1016 338 1008 315 996 c 1
 315 905 l 1
 302 888 287 878 271 878 c 0
 256 878 239 887 221 905 c 1
 171 1109 l 1
 196 1115 l 2
 251 1129 312 1143 394 1143 c 0
 708 1143 766 938 766 827 c 0xfb
555 428 m 0
 634 428 682 362 682 305 c 0xfc
 682 262 655 225 594 225 c 0xf9
 514 225 466 291 466 348 c 0xfc
 466 391 493 428 555 428 c 0
804 1215 m 1
 61 1215 l 1
 322 162 l 1
 1050 162 l 1
 804 1215 l 1
-115 1371 m 1
 926 1371 l 1
 1242 0 l 1
 204 0 l 1
 -115 1371 l 1
EndSplineSet
EndChar

